IntelOneMono-Regular-quadratic.ufo
<glyph name="quotedbl" format="2">
  <advance width="614"/>
  <unicode hex="0022"/>
  <outline>
    <contour>
      <point x="399" y="405" type="line"/>
      <point x="478" y="405" type="line"/>
      <point x="498" y="710" type="line"/>
      <point x="379" y="710" type="line"/>
    </contour>
    <contour>
      <point x="143" y="405" type="line"/>
      <point x="223" y="405" type="line"/>
      <point x="242" y="710" type="line"/>
      <point x="123" y="710" type="line"/>
    </contour>
  </outline>
</glyph>
<glyph name="dollar" format="2">
  <advance width="614"/>
  <unicode hex="0024"/>
  <outline>
    <contour>
      <point x="344" y="2" type="qcurve"/>
      <point x="344" y="-142" type="line"/>
      <point x="279" y="-142" type="line"/>
      <point x="279" y="1" type="line"/>
      <point x="233" y="3"/>
      <point x="132" y="25"/>
      <point x="69" y="47" type="qcurve"/>
      <point x="90" y="121" type="line"/>
      <point x="146" y="101"/>
      <point x="246" y="76"/>
      <point x="283" y="72" type="qcurve"/>
      <point x="283" y="299" type="line"/>
      <point x="186" y="327"/>
      <point x="94" y="419"/>
      <point x="94" y="490" type="qcurve"/>
      <point x="94" y="557"/>
      <point x="197" y="646"/>
      <point x="286" y="654" type="qcurve"/>
      <point x="286" y="797" type="line"/>
      <point x="350" y="797" type="line"/>
      <point x="350" y="654" type="line"/>
      <point x="386" y="653"/>
      <point x="461" y="640"/>
      <point x="520" y="625" type="qcurve"/>
      <point x="504" y="551" type="line"/>
      <point x="454" y="565"/>
      <point x="378" y="581"/>
      <point x="347" y="583" type="qcurve"/>
      <point x="347" y="374" type="line"/>
      <point x="453" y="341"/>
      <point x="539" y="258"/>
      <point x="539" y="183" type="qcurve"/>
      <point x="539" y="105"/>
      <point x="437" y="10"/>
    </contour>
    <contour>
      <point x="182" y="497" type="qcurve"/>
      <point x="182" y="454"/>
      <point x="234" y="402"/>
      <point x="295" y="382" type="qcurve"/>
      <point x="295" y="583" type="line"/>
      <point x="240" y="580"/>
      <point x="182" y="535"/>
    </contour>
    <contour>
      <point x="450" y="179" type="qcurve"/>
      <point x="450" y="220"/>
      <point x="397" y="269"/>
      <point x="335" y="290" type="qcurve"/>
      <point x="335" y="72" type="line"/>
      <point x="391" y="78"/>
      <point x="450" y="132"/>
    </contour>
  </outline>
</glyph>
<glyph name="percent" format="2">
  <advance width="614"/>
  <unicode hex="0025"/>
  <outline>
    <contour>
      <point x="187" y="317" type="qcurve"/>
      <point x="118" y="317"/>
      <point x="45" y="408"/>
      <point x="45" y="493" type="qcurve"/>
      <point x="45" y="578"/>
      <point x="119" y="670"/>
      <point x="188" y="670" type="qcurve"/>
      <point x="258" y="670"/>
      <point x="334" y="579"/>
      <point x="334" y="494" type="qcurve"/>
      <point x="334" y="409"/>
      <point x="257" y="317"/>
    </contour>
    <contour>
      <point x="588" y="654" type="line"/>
      <point x="395" y="377" type="line"/>
      <point x="354" y="377" type="line"/>
      <point x="494" y="660" type="line"/>
      <point x="588" y="660" type="line"/>
    </contour>
    <contour>
      <point x="269" y="493" type="qcurve"/>
      <point x="269" y="554"/>
      <point x="228" y="615"/>
      <point x="187" y="615" type="qcurve"/>
      <point x="148" y="615"/>
      <point x="109" y="555"/>
      <point x="109" y="494" type="qcurve"/>
      <point x="109" y="433"/>
      <point x="148" y="374"/>
      <point x="188" y="374" type="qcurve"/>
      <point x="229" y="374"/>
      <point x="269" y="433"/>
    </contour>
    <contour>
      <point x="426" y="-15" type="qcurve"/>
      <point x="356" y="-15"/>
      <point x="280" y="77"/>
      <point x="280" y="161" type="qcurve"/>
      <point x="280" y="246"/>
      <point x="357" y="338"/>
      <point x="427" y="338" type="qcurve"/>
      <point x="496" y="338"/>
      <point x="569" y="247"/>
      <point x="569" y="162" type="qcurve"/>
      <point x="569" y="77"/>
      <point x="495" y="-15"/>
    </contour>
    <contour>
      <point x="345" y="162" type="qcurve"/>
      <point x="345" y="101"/>
      <point x="386" y="40"/>
      <point x="427" y="40" type="qcurve"/>
      <point x="467" y="40"/>
      <point x="506" y="100"/>
      <point x="506" y="161" type="qcurve"/>
      <point x="506" y="221"/>
      <point x="466" y="281"/>
      <point x="426" y="281" type="qcurve"/>
      <point x="385" y="281"/>
      <point x="345" y="222"/>
    </contour>
    <contour>
      <point x="26" y="1" type="line"/>
      <point x="219" y="278" type="line"/>
      <point x="260" y="278" type="line"/>
      <point x="120" y="-5" type="line"/>
      <point x="26" y="-5" type="line"/>
    </contour>
  </outline>
</glyph>
<glyph name="ampersand" format="2">
  <advance width="614"/>
  <unicode hex="0026"/>
  <outline>
    <contour>
      <point x="321" y="669" type="qcurve"/>
      <point x="346" y="669"/>
      <point x="417" y="660"/>
      <point x="474" y="649" type="qcurve"/>
      <point x="462" y="581" type="line"/>
      <point x="410" y="591"/>
      <point x="345" y="600"/>
      <point x="318" y="600" type="qcurve"/>
      <point x="279" y="600"/>
      <point x="234" y="564"/>
      <point x="234" y="533" type="qcurve"/>
      <point x="234" y="513"/>
      <point x="255" y="466"/>
      <point x="279" y="432" type="qcurve"/>
      <point x="406" y="249" type="line"/>
      <point x="477" y="429" type="line"/>
      <point x="544" y="403" type="line"/>
      <point x="453" y="190" type="line"/>
      <point x="589" y="0" type="line"/>
      <point x="491" y="0" type="line"/>
      <point x="410" y="115" type="line"/>
      <point x="373" y="46"/>
      <point x="291" y="-8"/>
      <point x="223" y="-8" type="qcurve"/>
      <point x="148" y="-8"/>
      <point x="56" y="86"/>
      <point x="56" y="165" type="qcurve"/>
      <point x="56" y="249"/>
      <point x="133" y="335"/>
      <point x="231" y="366" type="qcurve"/>
      <point x="214" y="390" type="line"/>
      <point x="182" y="435"/>
      <point x="154" y="499"/>
      <point x="154" y="529" type="qcurve"/>
      <point x="154" y="591"/>
      <point x="245" y="669"/>
    </contour>
    <contour>
      <point x="137" y="173" type="qcurve"/>
      <point x="137" y="122"/>
      <point x="190" y="65"/>
      <point x="236" y="65" type="qcurve"/>
      <point x="284" y="65"/>
      <point x="341" y="112"/>
      <point x="367" y="169" type="qcurve"/>
      <point x="267" y="314" type="line"/>
      <point x="192" y="289"/>
      <point x="137" y="235"/>
    </contour>
  </outline>
</glyph>
<glyph name="parenright" format="2">
  <advance width="614"/>
  <unicode hex="0029"/>
  <outline>
    <contour>
      <point x="499" y="332" type="qcurve"/>
      <point x="499" y="192"/>
      <point x="315" y="-49"/>
      <point x="132" y="-147" type="qcurve"/>
      <point x="91" y="-89" type="line"/>
      <point x="253" y="2"/>
      <point x="410" y="206"/>
      <point x="410" y="329" type="qcurve"/>
      <point x="410" y="452"/>
      <point x="253" y="656"/>
      <point x="91" y="747" type="qcurve"/>
      <point x="132" y="805" type="line"/>
      <point x="316" y="706"/>
      <point x="499" y="470"/>
    </contour>
  </outline>
</glyph>
<glyph name="plus" format="2">
  <advance width="614"/>
  <unicode hex="002B"/>
  <outline>
    <contour>
      <point x="266" y="292" type="line"/>
      <point x="70" y="292" type="line"/>
      <point x="70" y="363" type="line"/>
      <point x="266" y="363" type="line"/>
      <point x="266" y="567" type="line"/>
      <point x="347" y="567" type="line"/>
      <point x="347" y="363" type="line"/>
      <point x="544" y="363" type="line"/>
      <point x="544" y="292" type="line"/>
      <point x="347" y="292" type="line"/>
      <point x="347" y="87" type="line"/>
      <point x="266" y="87" type="line"/>
    </contour>
  </outline>
</glyph>
<glyph name="comma" format="2">
  <advance width="614"/>
  <unicode hex="002C"/>
  <outline>
    <contour>
      <point x="227" y="-152" type="qcurve"/>
      <point x="143" y="-152" type="line"/>
      <point x="143" y="-150" type="line"/>
      <point x="209" y="-54"/>
      <point x="248" y="43"/>
      <point x="256" y="132" type="qcurve"/>
      <point x="392" y="132" type="line"/>
      <point x="379" y="35"/>
      <point x="318" y="-72"/>
    </contour>
  </outline>
</glyph>
<glyph name="zero" format="2">
  <advance width="614"/>
  <unicode hex="0030"/>
  <outline>
    <contour>
      <point x="308" y="670" type="qcurve"/>
      <point x="422" y="670"/>
      <point x="547" y="492"/>
      <point x="547" y="329" type="qcurve"/>
      <point x="547" y="165"/>
      <point x="421" y="-15"/>
      <point x="306" y="-15" type="qcurve"/>
      <point x="191" y="-15"/>
      <point x="67" y="161"/>
      <point x="67" y="325" type="qcurve"/>
      <point x="67" y="489"/>
      <point x="194" y="670"/>
    </contour>
    <contour>
      <point x="307" y="596" type="qcurve"/>
      <point x="230" y="596"/>
      <point x="152" y="462"/>
      <point x="152" y="327" type="qcurve"/>
      <point x="152" y="302"/>
      <point x="154" y="263"/>
      <point x="156" y="246" type="qcurve"/>
      <point x="446" y="470" type="line"/>
      <point x="429" y="533"/>
      <point x="359" y="596"/>
    </contour>
    <contour>
      <point x="307" y="59" type="qcurve"/>
      <point x="384" y="59"/>
      <point x="462" y="194"/>
      <point x="462" y="327" type="qcurve"/>
      <point x="462" y="351"/>
      <point x="460" y="390"/>
      <point x="458" y="406" type="qcurve"/>
      <point x="168" y="182" type="line"/>
      <point x="186" y="121"/>
      <point x="255" y="59"/>
    </contour>
  </outline>
</glyph>
<glyph name="three" format="2">
  <advance width="614"/>
  <unicode hex="0033"/>
  <outline>
    <contour>
      <point x="390" y="583" type="line"/>
      <point x="76" y="583" type="line"/>
      <point x="76" y="655" type="line"/>
      <point x="506" y="655" type="line"/>
      <point x="506" y="600" type="line"/>
      <point x="310" y="390" type="line"/>
      <point x="310" y="388" type="line"/>
      <point x="419" y="388"/>
      <point x="536" y="296"/>
      <point x="536" y="214" type="qcurve"/>
      <point x="536" y="117"/>
      <point x="376" y="9"/>
      <point x="217" y="-2" type="qcurve"/>
      <point x="98" y="-10" type="line"/>
      <point x="91" y="67" type="line"/>
      <point x="211" y="76" type="line"/>
      <point x="332" y="85"/>
      <point x="447" y="151"/>
      <point x="447" y="213" type="qcurve"/>
      <point x="447" y="267"/>
      <point x="368" y="321"/>
      <point x="289" y="321" type="qcurve"/>
      <point x="269" y="321"/>
      <point x="227" y="317"/>
      <point x="201" y="313" type="qcurve"/>
      <point x="185" y="353" type="line"/>
      <point x="390" y="580" type="line"/>
    </contour>
  </outline>
</glyph>
<glyph name="four" format="2">
  <advance width="614"/>
  <unicode hex="0034"/>
  <outline>
    <contour>
      <point x="369" y="175" type="line"/>
      <point x="53" y="175" type="line"/>
      <point x="53" y="237" type="line"/>
      <point x="337" y="655" type="line"/>
      <point x="454" y="655" type="line"/>
      <point x="454" y="245" type="line"/>
      <point x="584" y="245" type="line"/>
      <point x="584" y="175" type="line"/>
      <point x="454" y="175" type="line"/>
      <point x="454" y="0" type="line"/>
      <point x="369" y="0" type="line"/>
    </contour>
    <contour>
      <point x="376" y="239" type="line"/>
      <point x="376" y="595" type="line"/>
      <point x="137" y="244" type="line"/>
      <point x="137" y="239" type="line"/>
    </contour>
  </outline>
</glyph>
<glyph name="seven" format="2">
  <advance width="614"/>
  <unicode hex="0037"/>
  <outline>
    <contour>
      <point x="532" y="583" type="line"/>
      <point x="255" y="0" type="line"/>
      <point x="152" y="0" type="line"/>
      <point x="152" y="2" type="line"/>
      <point x="443" y="574" type="line"/>
      <point x="443" y="580" type="line"/>
      <point x="59" y="580" type="line"/>
      <point x="59" y="655" type="line"/>
      <point x="532" y="655" type="line"/>
    </contour>
  </outline>
</glyph>
<glyph name="nine" format="2">
  <advance width="614"/>
  <unicode hex="0039"/>
  <outline>
    <contour>
      <point x="540" y="428" type="qcurve"/>
      <point x="540" y="334"/>
      <point x="462" y="179"/>
      <point x="370" y="92" type="qcurve"/>
      <point x="273" y="0" type="line"/>
      <point x="154" y="0" type="line"/>
      <point x="153" y="2" type="line"/>
      <point x="293" y="127" type="line"/>
      <point x="329" y="159"/>
      <point x="381" y="218"/>
      <point x="399" y="247" type="qcurve"/>
      <point x="370" y="238"/>
      <point x="318" y="229"/>
      <point x="290" y="229" type="qcurve"/>
      <point x="192" y="229"/>
      <point x="75" y="345"/>
      <point x="75" y="442" type="qcurve"/>
      <point x="75" y="543"/>
      <point x="209" y="670"/>
      <point x="315" y="670" type="qcurve"/>
      <point x="414" y="670"/>
      <point x="540" y="537"/>
    </contour>
    <contour>
      <point x="433" y="314" type="qcurve"/>
      <point x="443" y="341"/>
      <point x="452" y="395"/>
      <point x="452" y="424" type="qcurve"/>
      <point x="452" y="503"/>
      <point x="371" y="599"/>
      <point x="307" y="599" type="qcurve"/>
      <point x="243" y="599"/>
      <point x="164" y="511"/>
      <point x="164" y="440" type="qcurve"/>
      <point x="164" y="373"/>
      <point x="242" y="295"/>
      <point x="310" y="295" type="qcurve"/>
      <point x="341" y="295"/>
      <point x="402" y="304"/>
    </contour>
  </outline>
</glyph>
<glyph name="semicolon" format="2">
  <advance width="614"/>
  <unicode hex="003B"/>
  <outline>
    <contour>
      <point x="405" y="399" type="qcurve"/>
      <point x="405" y="362"/>
      <point x="358" y="322"/>
      <point x="316" y="322" type="qcurve"/>
      <point x="276" y="322"/>
      <point x="231" y="363"/>
      <point x="231" y="401" type="qcurve"/>
      <point x="231" y="436"/>
      <point x="278" y="478"/>
      <point x="318" y="478" type="qcurve"/>
      <point x="361" y="478"/>
      <point x="405" y="438"/>
    </contour>
    <contour>
      <point x="220" y="-152" type="qcurve"/>
      <point x="136" y="-152" type="line"/>
      <point x="136" y="-150" type="line"/>
      <point x="201" y="-56"/>
      <point x="240" y="41"/>
      <point x="249" y="132" type="qcurve"/>
      <point x="385" y="132" type="line"/>
      <point x="371" y="34"/>
      <point x="310" y="-73"/>
    </contour>
  </outline>
</glyph>
<glyph name="less" format="2">
  <advance width="614"/>
  <unicode hex="003C"/>
  <outline>
    <contour>
      <point x="538" y="159" type="line"/>
      <point x="538" y="79" type="line"/>
      <point x="68" y="282" type="line"/>
      <point x="68" y="361" type="line"/>
      <point x="538" y="563" type="line"/>
      <point x="538" y="484" type="line"/>
      <point x="146" y="322" type="line"/>
    </contour>
  </outline>
</glyph>
<glyph name="equal" format="2">
  <advance width="614"/>
  <unicode hex="003D"/>
  <outline>
    <contour>
      <point x="521" y="390" type="line"/>
      <point x="93" y="390" type="line"/>
      <point x="93" y="461" type="line"/>
      <point x="521" y="461" type="line"/>
    </contour>
    <contour>
      <point x="521" y="194" type="line"/>
      <point x="93" y="194" type="line"/>
      <point x="93" y="266" type="line"/>
      <point x="521" y="266" type="line"/>
    </contour>
  </outline>
</glyph>
<glyph name="question" format="2">
  <advance width="614"/>
  <unicode hex="003F"/>
  <outline>
    <contour>
      <point x="276" y="242" type="qcurve"/>
      <point x="221" y="242" type="line"/>
      <point x="210" y="316"/>
      <point x="207" y="337"/>
      <point x="207" y="343" type="qcurve"/>
      <point x="207" y="361"/>
      <point x="227" y="382"/>
      <point x="258" y="397" type="qcurve"/>
      <point x="353" y="443" type="line"/>
      <point x="407" y="470"/>
      <point x="449" y="518"/>
      <point x="449" y="554" type="qcurve"/>
      <point x="449" y="603"/>
      <point x="386" y="653"/>
      <point x="325" y="653" type="qcurve"/>
      <point x="283" y="653"/>
      <point x="173" y="625"/>
      <point x="89" y="593" type="qcurve"/>
      <point x="66" y="666" type="line"/>
      <point x="157" y="700"/>
      <point x="271" y="725"/>
      <point x="335" y="725" type="qcurve"/>
      <point x="434" y="725"/>
      <point x="538" y="636"/>
      <point x="538" y="553" type="qcurve"/>
      <point x="538" y="495"/>
      <point x="482" y="424"/>
      <point x="401" y="383" type="qcurve"/>
      <point x="319" y="340" type="line"/>
      <point x="296" y="328"/>
      <point x="282" y="295"/>
    </contour>
    <contour>
      <point x="324" y="48" type="qcurve"/>
      <point x="324" y="17"/>
      <point x="283" y="-15"/>
      <point x="243" y="-15" type="qcurve"/>
      <point x="204" y="-15"/>
      <point x="165" y="18"/>
      <point x="165" y="50" type="qcurve"/>
      <point x="165" y="80"/>
      <point x="207" y="113"/>
      <point x="245" y="113" type="qcurve"/>
      <point x="285" y="113"/>
      <point x="324" y="81"/>
    </contour>
  </outline>
</glyph>
<glyph name="at" format="2">
  <advance width="614"/>
  <unicode hex="0040"/>
  <outline>
    <contour>
      <point x="484" y="-13" type="qcurve"/>
      <point x="492" y="-60" type="line"/>
      <point x="444" y="-71"/>
      <point x="375" y="-79"/>
      <point x="341" y="-79" type="qcurve"/>
      <point x="192" y="-79"/>
      <point x="60" y="107"/>
      <point x="60" y="315" type="qcurve"/>
      <point x="60" y="526"/>
      <point x="191" y="725"/>
      <point x="334" y="725" type="qcurve"/>
      <point x="415" y="725"/>
      <point x="506" y="668"/>
      <point x="529" y="604" type="qcurve"/>
      <point x="545" y="562"/>
      <point x="560" y="440"/>
      <point x="560" y="358" type="qcurve"/>
      <point x="560" y="237"/>
      <point x="481" y="129"/>
      <point x="388" y="129" type="qcurve"/>
      <point x="299" y="129"/>
      <point x="218" y="222"/>
      <point x="218" y="323" type="qcurve"/>
      <point x="218" y="421"/>
      <point x="308" y="515"/>
      <point x="402" y="515" type="qcurve"/>
      <point x="500" y="515" type="line"/>
      <point x="488" y="604"/>
      <point x="414" y="677"/>
      <point x="328" y="677" type="qcurve"/>
      <point x="212" y="677"/>
      <point x="111" y="507"/>
      <point x="111" y="320" type="qcurve"/>
      <point x="111" y="135"/>
      <point x="221" y="-31"/>
      <point x="346" y="-31" type="qcurve"/>
      <point x="378" y="-31"/>
      <point x="445" y="-22"/>
    </contour>
    <contour>
      <point x="285" y="322" type="qcurve"/>
      <point x="285" y="251"/>
      <point x="335" y="187"/>
      <point x="392" y="187" type="qcurve"/>
      <point x="457" y="187"/>
      <point x="509" y="264"/>
      <point x="509" y="356" type="qcurve"/>
      <point x="509" y="384"/>
      <point x="508" y="434"/>
      <point x="506" y="457" type="qcurve"/>
      <point x="400" y="457" type="line"/>
      <point x="339" y="457"/>
      <point x="285" y="393"/>
    </contour>
  </outline>
</glyph>
<glyph name="D" format="2">
  <advance width="614"/>
  <unicode hex="0044"/>
  <outline>
    <contour>
      <point x="92" y="0" type="line"/>
      <point x="92" y="655" type="line"/>
      <point x="200" y="655" type="line"/>
      <point x="372" y="655"/>
      <point x="562" y="488"/>
      <point x="562" y="336" type="qcurve"/>
      <point x="562" y="175"/>
      <point x="356" y="0"/>
      <point x="166" y="0" type="qcurve"/>
    </contour>
    <contour>
      <point x="473" y="334" type="qcurve"/>
      <point x="473" y="452"/>
      <point x="343" y="580"/>
      <point x="224" y="582" type="qcurve"/>
      <point x="179" y="584" type="line"/>
      <point x="179" y="72" type="line"/>
      <point x="197" y="73" type="line"/>
      <point x="333" y="75"/>
      <point x="473" y="207"/>
    </contour>
  </outline>
</glyph>
<glyph name="F" format="2">
  <advance width="614"/>
  <unicode hex="0046"/>
  <outline>
    <contour>
      <point x="101" y="0" type="line"/>
      <point x="101" y="655" type="line"/>
      <point x="532" y="655" type="line"/>
      <point x="532" y="583" type="line"/>
      <point x="188" y="583" type="line"/>
      <point x="188" y="335" type="line"/>
      <point x="499" y="335" type="line"/>
      <point x="499" y="263" type="line"/>
      <point x="188" y="263" type="line"/>
      <point x="188" y="0" type="line"/>
    </contour>
  </outline>
</glyph>
<glyph name="G" format="2">
  <advance width="614"/>
  <unicode hex="0047"/>
  <outline>
    <contour>
      <point x="506" y="655" type="qcurve"/>
      <point x="499" y="582" type="line"/>
      <point x="467" y="587"/>
      <point x="425" y="591"/>
      <point x="399" y="591" type="qcurve"/>
      <point x="279" y="591"/>
      <point x="145" y="453"/>
      <point x="145" y="328" type="qcurve"/>
      <point x="145" y="193"/>
      <point x="260" y="57"/>
      <point x="375" y="57" type="qcurve"/>
      <point x="396" y="57"/>
      <point x="444" y="63"/>
      <point x="468" y="68" type="qcurve"/>
      <point x="468" y="283" type="line"/>
      <point x="311" y="283" type="line"/>
      <point x="311" y="353" type="line"/>
      <point x="551" y="353" type="line"/>
      <point x="551" y="11" type="line"/>
      <point x="502" y="-2"/>
      <point x="412" y="-15"/>
      <point x="368" y="-15" type="qcurve"/>
      <point x="213" y="-15"/>
      <point x="55" y="157"/>
      <point x="55" y="325" type="qcurve"/>
      <point x="55" y="483"/>
      <point x="239" y="664"/>
      <point x="397" y="664" type="qcurve"/>
      <point x="424" y="664"/>
      <point x="472" y="660"/>
    </contour>
  </outline>
</glyph>
<glyph name="H" format="2">
  <advance width="614"/>
  <unicode hex="0048"/>
  <outline>
    <contour>
      <point x="92" y="0" type="line"/>
      <point x="92" y="655" type="line"/>
      <point x="179" y="655" type="line"/>
      <point x="179" y="367" type="line"/>
      <point x="435" y="367" type="line"/>
      <point x="435" y="655" type="line"/>
      <point x="522" y="655" type="line"/>
      <point x="522" y="0" type="line"/>
      <point x="435" y="0" type="line"/>
      <point x="435" y="294" type="line"/>
      <point x="179" y="294" type="line"/>
      <point x="179" y="0" type="line"/>
    </contour>
  </outline>
</glyph>
<glyph name="K" format="2">
  <advance width="614"/>
  <unicode hex="004B"/>
  <outline>
    <contour>
      <point x="95" y="655" type="line"/>
      <point x="182" y="655" type="line"/>
      <point x="182" y="339" type="line"/>
      <point x="472" y="655" type="line"/>
      <point x="579" y="655" type="line"/>
      <point x="579" y="653" type="line"/>
      <point x="283" y="337" type="line"/>
      <point x="591" y="2" type="line"/>
      <point x="591" y="0" type="line"/>
      <point x="477" y="0" type="line"/>
      <point x="182" y="321" type="line"/>
      <point x="182" y="0" type="line"/>
      <point x="95" y="0" type="line"/>
    </contour>
  </outline>
</glyph>
<glyph name="L" format="2">
  <advance width="614"/>
  <unicode hex="004C"/>
  <outline>
    <contour>
      <point x="98" y="0" type="line"/>
      <point x="98" y="655" type="line"/>
      <point x="185" y="655" type="line"/>
      <point x="185" y="71" type="line"/>
      <point x="543" y="71" type="line"/>
      <point x="543" y="0" type="line"/>
    </contour>
  </outline>
</glyph>
<glyph name="M" format="2">
  <advance width="614"/>
  <unicode hex="004D"/>
  <outline>
    <contour>
      <point x="429" y="655" type="line"/>
      <point x="525" y="655" type="line"/>
      <point x="552" y="0" type="line"/>
      <point x="470" y="0" type="line"/>
      <point x="453" y="555" type="line"/>
      <point x="317" y="179" type="line"/>
      <point x="297" y="179" type="line"/>
      <point x="161" y="544" type="line"/>
      <point x="144" y="0" type="line"/>
      <point x="62" y="0" type="line"/>
      <point x="89" y="655" type="line"/>
      <point x="186" y="655" type="line"/>
      <point x="308" y="328" type="line"/>
    </contour>
  </outline>
</glyph>
<glyph name="N" format="2">
  <advance width="614"/>
  <unicode hex="004E"/>
  <outline>
    <contour>
      <point x="166" y="549" type="line"/>
      <point x="171" y="0" type="line"/>
      <point x="90" y="0" type="line"/>
      <point x="90" y="655" type="line"/>
      <point x="201" y="655" type="line"/>
      <point x="448" y="119" type="line"/>
      <point x="443" y="655" type="line"/>
      <point x="524" y="655" type="line"/>
      <point x="524" y="0" type="line"/>
      <point x="419" y="0" type="line"/>
    </contour>
  </outline>
</glyph>
<glyph name="P" format="2">
  <advance width="614"/>
  <unicode hex="0050"/>
  <outline>
    <contour>
      <point x="95" y="0" type="line"/>
      <point x="95" y="655" type="line"/>
      <point x="318" y="655" type="line"/>
      <point x="437" y="655"/>
      <point x="569" y="544"/>
      <point x="569" y="444" type="qcurve"/>
      <point x="569" y="342"/>
      <point x="430" y="229"/>
      <point x="305" y="229" type="qcurve"/>
      <point x="182" y="229" type="line"/>
      <point x="182" y="0" type="line"/>
    </contour>
    <contour>
      <point x="481" y="442" type="qcurve"/>
      <point x="481" y="510"/>
      <point x="397" y="583"/>
      <point x="318" y="583" type="qcurve"/>
      <point x="182" y="583" type="line"/>
      <point x="182" y="300" type="line"/>
      <point x="311" y="300" type="line"/>
      <point x="391" y="300"/>
      <point x="481" y="375"/>
    </contour>
  </outline>
</glyph>
<glyph name="S" format="2">
  <advance width="614"/>
  <unicode hex="0053"/>
  <outline>
    <contour>
      <point x="308" y="59" type="qcurve"/>
      <point x="378" y="59"/>
      <point x="452" y="118"/>
      <point x="452" y="173" type="qcurve"/>
      <point x="452" y="215"/>
      <point x="398" y="266"/>
      <point x="337" y="285" type="qcurve"/>
      <point x="266" y="308" type="line"/>
      <point x="178" y="335"/>
      <point x="96" y="426"/>
      <point x="96" y="497" type="qcurve"/>
      <point x="96" y="572"/>
      <point x="218" y="668"/>
      <point x="320" y="668" type="qcurve"/>
      <point x="368" y="668"/>
      <point x="457" y="654"/>
      <point x="521" y="636" type="qcurve"/>
      <point x="506" y="561" type="line"/>
      <point x="446" y="579"/>
      <point x="355" y="596"/>
      <point x="318" y="596" type="qcurve"/>
      <point x="253" y="596"/>
      <point x="184" y="548"/>
      <point x="184" y="503" type="qcurve"/>
      <point x="184" y="458"/>
      <point x="237" y="405"/>
      <point x="300" y="385" type="qcurve"/>
      <point x="372" y="362" type="line"/>
      <point x="464" y="333"/>
      <point x="540" y="249"/>
      <point x="540" y="177" type="qcurve"/>
      <point x="540" y="88"/>
      <point x="417" y="-13"/>
      <point x="307" y="-13" type="qcurve"/>
      <point x="251" y="-13"/>
      <point x="135" y="11"/>
      <point x="70" y="36" type="qcurve"/>
      <point x="91" y="110" type="line"/>
      <point x="160" y="85"/>
      <point x="270" y="59"/>
    </contour>
  </outline>
</glyph>
<glyph name="U" format="2">
  <advance width="614"/>
  <unicode hex="0055"/>
  <outline>
    <contour>
      <point x="307" y="61" type="qcurve"/>
      <point x="380" y="61"/>
      <point x="451" y="145"/>
      <point x="451" y="232" type="qcurve"/>
      <point x="451" y="655" type="line"/>
      <point x="537" y="655" type="line"/>
      <point x="537" y="232" type="line"/>
      <point x="537" y="109"/>
      <point x="421" y="-15"/>
      <point x="305" y="-15" type="qcurve"/>
      <point x="192" y="-15"/>
      <point x="77" y="110"/>
      <point x="77" y="232" type="qcurve"/>
      <point x="77" y="655" type="line"/>
      <point x="164" y="655" type="line"/>
      <point x="164" y="232" type="line"/>
      <point x="164" y="146"/>
      <point x="235" y="61"/>
    </contour>
  </outline>
</glyph>
<glyph name="bracketleft" format="2">
  <advance width="614"/>
  <unicode hex="005B"/>
  <outline>
    <contour>
      <point x="524" y="-135" type="line"/>
      <point x="189" y="-135" type="line"/>
      <point x="189" y="787" type="line"/>
      <point x="524" y="787" type="line"/>
      <point x="524" y="715" type="line"/>
      <point x="276" y="715" type="line"/>
      <point x="276" y="-63" type="line"/>
      <point x="524" y="-63" type="line"/>
    </contour>
  </outline>
</glyph>
<glyph name="backslash" format="2">
  <advance width="614"/>
  <unicode hex="005C"/>
  <outline>
    <contour>
      <point x="484" y="-100" type="line"/>
      <point x="41" y="755" type="line"/>
      <point x="128" y="755" type="line"/>
      <point x="573" y="-100" type="line"/>
    </contour>
  </outline>
</glyph>
<glyph name="asciicircum" format="2">
  <advance width="614"/>
  <unicode hex="005E"/>
  <outline>
    <contour>
      <point x="141" y="271" type="line"/>
      <point x="51" y="271" type="line"/>
      <point x="257" y="655" type="line"/>
      <point x="355" y="655" type="line"/>
      <point x="563" y="271" type="line"/>
      <point x="471" y="271" type="line"/>
      <point x="306" y="591" type="line"/>
    </contour>
  </outline>
</glyph>
<glyph name="grave" format="2">
  <advance width="614"/>
  <unicode hex="0060"/>
  <outline>
    <contour>
      <point x="425" y="405" type="line"/>
      <point x="344" y="405" type="line"/>
      <point x="152" y="710" type="line"/>
      <point x="284" y="710" type="line"/>
    </contour>
  </outline>
</glyph>
<glyph name="b" format="2">
  <advance width="614"/>
  <unicode hex="0062"/>
  <outline>
    <contour>
      <point x="92" y="710" type="line"/>
      <point x="178" y="710" type="line"/>
      <point x="178" y="393" type="line"/>
      <point x="220" y="437"/>
      <point x="299" y="475"/>
      <point x="348" y="475" type="qcurve"/>
      <point x="437" y="475"/>
      <point x="555" y="343"/>
      <point x="555" y="239" type="qcurve"/>
      <point x="555" y="133"/>
      <point x="413" y="-8"/>
      <point x="304" y="-8" type="qcurve"/>
      <point x="266" y="-8"/>
      <point x="194" y="11"/>
      <point x="160" y="30" type="qcurve"/>
      <point x="117" y="-1" type="line"/>
      <point x="92" y="-1" type="line"/>
    </contour>
    <contour>
      <point x="467" y="236" type="qcurve"/>
      <point x="467" y="310"/>
      <point x="386" y="403"/>
      <point x="324" y="403" type="qcurve"/>
      <point x="288" y="403"/>
      <point x="220" y="366"/>
      <point x="178" y="324" type="qcurve"/>
      <point x="178" y="102" type="line"/>
      <point x="207" y="83"/>
      <point x="263" y="64"/>
      <point x="292" y="64" type="qcurve"/>
      <point x="370" y="64"/>
      <point x="467" y="162"/>
    </contour>
  </outline>
</glyph>
<glyph name="c" format="2">
  <advance width="614"/>
  <unicode hex="0063"/>
  <outline>
    <contour>
      <point x="328" y="407" type="qcurve"/>
      <point x="253" y="407"/>
      <point x="159" y="311"/>
      <point x="159" y="235" type="qcurve"/>
      <point x="159" y="157"/>
      <point x="249" y="58"/>
      <point x="319" y="58" type="qcurve"/>
      <point x="364" y="58"/>
      <point x="451" y="86"/>
      <point x="508" y="118" type="qcurve"/>
      <point x="545" y="58" type="line"/>
      <point x="477" y="19"/>
      <point x="373" y="-15"/>
      <point x="315" y="-15" type="qcurve"/>
      <point x="205" y="-15"/>
      <point x="70" y="122"/>
      <point x="70" y="236" type="qcurve"/>
      <point x="70" y="339"/>
      <point x="218" y="480"/>
      <point x="327" y="480" type="qcurve"/>
      <point x="383" y="480"/>
      <point x="483" y="445"/>
      <point x="543" y="405" type="qcurve"/>
      <point x="503" y="342" type="line"/>
      <point x="449" y="377"/>
      <point x="371" y="407"/>
    </contour>
  </outline>
</glyph>
<glyph name="h" format="2">
  <advance width="614"/>
  <unicode hex="0068"/>
  <outline>
    <contour>
      <point x="95" y="710" type="line"/>
      <point x="181" y="710" type="line"/>
      <point x="181" y="365" type="line"/>
      <point x="244" y="424"/>
      <point x="333" y="472"/>
      <point x="381" y="472" type="qcurve"/>
      <point x="449" y="472"/>
      <point x="522" y="395"/>
      <point x="522" y="324" type="qcurve"/>
      <point x="522" y="0" type="line"/>
      <point x="436" y="0" type="line"/>
      <point x="436" y="309" type="line"/>
      <point x="436" y="353"/>
      <point x="398" y="394"/>
      <point x="357" y="394" type="qcurve"/>
      <point x="322" y="394"/>
      <point x="245" y="346"/>
      <point x="181" y="286" type="qcurve"/>
      <point x="181" y="0" type="line"/>
      <point x="95" y="0" type="line"/>
    </contour>
  </outline>
</glyph>
<glyph name="m" format="2">
  <advance width="614"/>
  <unicode hex="006D"/>
  <outline>
    <contour>
      <point x="53" y="465" type="line"/>
      <point x="117" y="465" type="line"/>
      <point x="126" y="362" type="line"/>
      <point x="133" y="362" type="line"/>
      <point x="170" y="418"/>
      <point x="237" y="470"/>
      <point x="272" y="470" type="qcurve"/>
      <point x="310" y="470"/>
      <point x="345" y="428"/>
      <point x="345" y="383" type="qcurve"/>
      <point x="345" y="366" type="line"/>
      <point x="353" y="366" type="line"/>
      <point x="389" y="420"/>
      <point x="452" y="469"/>
      <point x="488" y="469" type="qcurve"/>
      <point x="527" y="469"/>
      <point x="563" y="425"/>
      <point x="563" y="379" type="qcurve"/>
      <point x="563" y="0" type="line"/>
      <point x="484" y="0" type="line"/>
      <point x="484" y="354" type="line"/>
      <point x="484" y="372"/>
      <point x="470" y="387"/>
      <point x="454" y="387" type="qcurve"/>
      <point x="435" y="387"/>
      <point x="386" y="347"/>
      <point x="346" y="299" type="qcurve"/>
      <point x="346" y="0" type="line"/>
      <point x="270" y="0" type="line"/>
      <point x="270" y="355" type="line"/>
      <point x="270" y="372"/>
      <point x="256" y="387"/>
      <point x="240" y="387" type="qcurve"/>
      <point x="220" y="387"/>
      <point x="171" y="346"/>
      <point x="131" y="298" type="qcurve"/>
      <point x="131" y="0" type="line"/>
      <point x="53" y="0" type="line"/>
    </contour>
  </outline>
</glyph>
<glyph name="n" format="2">
  <advance width="614"/>
  <unicode hex="006E"/>
  <outline>
    <contour>
      <point x="95" y="465" type="line"/>
      <point x="168" y="465" type="line"/>
      <point x="177" y="361" type="line"/>
      <point x="242" y="423"/>
      <point x="332" y="472"/>
      <point x="381" y="472" type="qcurve"/>
      <point x="449" y="472"/>
      <point x="522" y="395"/>
      <point x="522" y="324" type="qcurve"/>
      <point x="522" y="0" type="line"/>
      <point x="436" y="0" type="line"/>
      <point x="436" y="309" type="line"/>
      <point x="436" y="353"/>
      <point x="398" y="394"/>
      <point x="357" y="394" type="qcurve"/>
      <point x="322" y="394"/>
      <point x="245" y="346"/>
      <point x="181" y="286" type="qcurve"/>
      <point x="181" y="0" type="line"/>
      <point x="95" y="0" type="line"/>
    </contour>
  </outline>
</glyph>
<glyph name="o" format="2">
  <advance width="614"/>
  <unicode hex="006F"/>
  <outline>
    <contour>
      <point x="550" y="231" type="qcurve"/>
      <point x="550" y="122"/>
      <point x="413" y="-15"/>
      <point x="305" y="-15" type="qcurve"/>
      <point x="198" y="-15"/>
      <point x="64" y="123"/>
      <point x="64" y="234" type="qcurve"/>
      <point x="64" y="342"/>
      <point x="202" y="480"/>
      <point x="309" y="480" type="qcurve"/>
      <point x="415" y="480"/>
      <point x="550" y="341"/>
    </contour>
    <contour>
      <point x="151" y="233" type="qcurve"/>
      <point x="151" y="152"/>
      <point x="236" y="57"/>
      <point x="307" y="57" type="qcurve"/>
      <point x="379" y="57"/>
      <point x="463" y="151"/>
      <point x="463" y="232" type="qcurve"/>
      <point x="463" y="311"/>
      <point x="377" y="409"/>
      <point x="307" y="409" type="qcurve"/>
      <point x="237" y="409"/>
      <point x="151" y="313"/>
    </contour>
  </outline>
</glyph>
<glyph name="q" format="2">
  <advance width="614"/>
  <unicode hex="0071"/>
  <outline>
    <contour>
      <point x="266" y="-10" type="qcurve"/>
      <point x="177" y="-10"/>
      <point x="59" y="122"/>
      <point x="59" y="226" type="qcurve"/>
      <point x="59" y="332"/>
      <point x="201" y="473"/>
      <point x="310" y="473" type="qcurve"/>
      <point x="350" y="473"/>
      <point x="421" y="454"/>
      <point x="454" y="435" type="qcurve"/>
      <point x="497" y="467" type="line"/>
      <point x="522" y="467" type="line"/>
      <point x="522" y="-230" type="line"/>
      <point x="436" y="-230" type="line"/>
      <point x="436" y="72" type="line"/>
      <point x="394" y="28"/>
      <point x="315" y="-10"/>
    </contour>
    <contour>
      <point x="322" y="402" type="qcurve"/>
      <point x="243" y="402"/>
      <point x="147" y="304"/>
      <point x="147" y="229" type="qcurve"/>
      <point x="147" y="155"/>
      <point x="228" y="62"/>
      <point x="290" y="62" type="qcurve"/>
      <point x="326" y="62"/>
      <point x="394" y="99"/>
      <point x="436" y="141" type="qcurve"/>
      <point x="436" y="364" type="line"/>
      <point x="407" y="383"/>
      <point x="351" y="402"/>
    </contour>
  </outline>
</glyph>
<glyph name="s" format="2">
  <advance width="614"/>
  <unicode hex="0073"/>
  <outline>
    <contour>
      <point x="522" y="130" type="qcurve"/>
      <point x="522" y="63"/>
      <point x="401" y="-13"/>
      <point x="290" y="-13" type="qcurve"/>
      <point x="241" y="-13"/>
      <point x="146" y="-3"/>
      <point x="94" y="7" type="qcurve"/>
      <point x="107" y="80" type="line"/>
      <point x="156" y="70"/>
      <point x="255" y="58"/>
      <point x="291" y="58" type="qcurve"/>
      <point x="364" y="58"/>
      <point x="435" y="91"/>
      <point x="435" y="124" type="qcurve"/>
      <point x="435" y="151"/>
      <point x="396" y="180"/>
      <point x="346" y="192" type="qcurve"/>
      <point x="259" y="212" type="line"/>
      <point x="174" y="233"/>
      <point x="106" y="289"/>
      <point x="106" y="345" type="qcurve"/>
      <point x="106" y="410"/>
      <point x="220" y="478"/>
      <point x="330" y="478" type="qcurve"/>
      <point x="364" y="478"/>
      <point x="460" y="468"/>
      <point x="503" y="460" type="qcurve"/>
      <point x="491" y="387" type="line"/>
      <point x="446" y="397"/>
      <point x="361" y="408"/>
      <point x="329" y="408" type="qcurve"/>
      <point x="260" y="408"/>
      <point x="194" y="381"/>
      <point x="194" y="352" type="qcurve"/>
      <point x="194" y="326"/>
      <point x="233" y="299"/>
      <point x="282" y="286" type="qcurve"/>
      <point x="368" y="266" type="line"/>
      <point x="454" y="246"/>
      <point x="522" y="188"/>
    </contour>
  </outline>
</glyph>
<glyph name="t" format="2">
  <advance width="614"/>
  <unicode hex="0074"/>
  <outline>
    <contour>
      <point x="219" y="177" type="qcurve"/>
      <point x="219" y="393" type="line"/>
      <point x="62" y="393" type="line"/>
      <point x="62" y="465" type="line"/>
      <point x="220" y="465" type="line"/>
      <point x="220" y="638" type="line"/>
      <point x="303" y="638" type="line"/>
      <point x="303" y="465" type="line"/>
      <point x="510" y="465" type="line"/>
      <point x="510" y="393" type="line"/>
      <point x="304" y="393" type="line"/>
      <point x="304" y="189" type="line"/>
      <point x="304" y="125"/>
      <point x="342" y="77"/>
      <point x="397" y="74" type="qcurve"/>
      <point x="538" y="66" type="line"/>
      <point x="532" y="-7" type="line"/>
      <point x="377" y="0" type="line"/>
      <point x="285" y="5"/>
      <point x="219" y="79"/>
    </contour>
  </outline>
</glyph>
<glyph name="w" format="2">
  <advance width="614"/>
  <unicode hex="0077"/>
  <outline>
    <contour>
      <point x="571" y="465" type="line"/>
      <point x="473" y="0" type="line"/>
      <point x="387" y="0" type="line"/>
      <point x="306" y="246" type="line"/>
      <point x="224" y="0" type="line"/>
      <point x="139" y="0" type="line"/>
      <point x="44" y="465" type="line"/>
      <point x="125" y="465" type="line"/>
      <point x="195" y="92" type="line"/>
      <point x="299" y="401" type="line"/>
      <point x="316" y="401" type="line"/>
      <point x="420" y="93" type="line"/>
      <point x="490" y="465" type="line"/>
    </contour>
  </outline>
</glyph>
<glyph name="x" format="2">
  <advance width="614"/>
  <unicode hex="0078"/>
  <outline>
    <contour>
      <point x="164" y="0" type="line"/>
      <point x="64" y="0" type="line"/>
      <point x="254" y="240" type="line"/>
      <point x="77" y="465" type="line"/>
      <point x="183" y="465" type="line"/>
      <point x="308" y="293" type="line"/>
      <point x="436" y="465" type="line"/>
      <point x="535" y="465" type="line"/>
      <point x="358" y="241" type="line"/>
      <point x="552" y="0" type="line"/>
      <point x="447" y="0" type="line"/>
      <point x="305" y="191" type="line"/>
    </contour>
  </outline>
</glyph>
<glyph name="cent" format="2">
  <advance width="614"/>
  <unicode hex="00A2"/>
  <outline>
    <contour>
      <point x="368" y="-142" type="line"/>
      <point x="301" y="-142" type="line"/>
      <point x="301" y="0" type="line"/>
      <point x="196" y="5"/>
      <point x="70" y="140"/>
      <point x="70" y="249" type="qcurve"/>
      <point x="70" y="345"/>
      <point x="200" y="480"/>
      <point x="301" y="489" type="qcurve"/>
      <point x="301" y="632" type="line"/>
      <point x="368" y="632" type="line"/>
      <point x="368" y="488" type="line"/>
      <point x="407" y="484"/>
      <point x="488" y="450"/>
      <point x="542" y="417" type="qcurve"/>
      <point x="503" y="353" type="line"/>
      <point x="458" y="382"/>
      <point x="390" y="412"/>
      <point x="361" y="416" type="qcurve"/>
      <point x="361" y="75" type="line"/>
      <point x="392" y="80"/>
      <point x="463" y="108"/>
      <point x="507" y="132" type="qcurve"/>
      <point x="544" y="73" type="line"/>
      <point x="492" y="42"/>
      <point x="407" y="9"/>
      <point x="368" y="4" type="qcurve"/>
    </contour>
    <contour>
      <point x="158" y="248" type="qcurve"/>
      <point x="158" y="174"/>
      <point x="242" y="76"/>
      <point x="309" y="72" type="qcurve"/>
      <point x="309" y="417" type="line"/>
      <point x="241" y="411"/>
      <point x="158" y="318"/>
    </contour>
  </outline>
</glyph>
<glyph name="yen" format="2">
  <advance width="614"/>
  <unicode hex="00A5"/>
  <outline>
    <contour>
      <point x="266" y="135" type="line"/>
      <point x="82" y="135" type="line"/>
      <point x="82" y="192" type="line"/>
      <point x="266" y="192" type="line"/>
      <point x="266" y="277" type="line"/>
      <point x="82" y="277" type="line"/>
      <point x="82" y="333" type="line"/>
      <point x="249" y="333" type="line"/>
      <point x="41" y="655" type="line"/>
      <point x="139" y="655" type="line"/>
      <point x="308" y="371" type="line"/>
      <point x="479" y="655" type="line"/>
      <point x="573" y="655" type="line"/>
      <point x="364" y="333" type="line"/>
      <point x="530" y="333" type="line"/>
      <point x="530" y="277" type="line"/>
      <point x="346" y="277" type="line"/>
      <point x="346" y="192" type="line"/>
      <point x="530" y="192" type="line"/>
      <point x="530" y="135" type="line"/>
      <point x="346" y="135" type="line"/>
      <point x="346" y="0" type="line"/>
      <point x="266" y="0" type="line"/>
    </contour>
  </outline>
</glyph>
<glyph name="section" format="2">
  <advance width="614"/>
  <unicode hex="00A7"/>
  <outline>
    <contour>
      <point x="58" y="201" type="qcurve"/>
      <point x="58" y="259"/>
      <point x="133" y="337"/>
      <point x="228" y="383" type="qcurve"/>
      <point x="163" y="412"/>
      <point x="109" y="476"/>
      <point x="109" y="525" type="qcurve"/>
      <point x="109" y="595"/>
      <point x="214" y="669"/>
      <point x="316" y="669" type="qcurve"/>
      <point x="362" y="669"/>
      <point x="446" y="658"/>
      <point x="511" y="644" type="qcurve"/>
      <point x="498" y="570" type="line"/>
      <point x="439" y="584"/>
      <point x="353" y="597"/>
      <point x="315" y="597" type="qcurve"/>
      <point x="253" y="597"/>
      <point x="195" y="566"/>
      <point x="195" y="532" type="qcurve"/>
      <point x="195" y="505"/>
      <point x="234" y="471"/>
      <point x="283" y="450" type="qcurve"/>
      <point x="406" y="396" type="line"/>
      <point x="488" y="360"/>
      <point x="555" y="287"/>
      <point x="555" y="228" type="qcurve"/>
      <point x="555" y="170"/>
      <point x="480" y="92"/>
      <point x="386" y="46" type="qcurve"/>
      <point x="450" y="18"/>
      <point x="505" y="-47"/>
      <point x="505" y="-96" type="qcurve"/>
      <point x="505" y="-167"/>
      <point x="399" y="-240"/>
      <point x="297" y="-240" type="qcurve"/>
      <point x="251" y="-240"/>
      <point x="167" y="-229"/>
      <point x="103" y="-215" type="qcurve"/>
      <point x="116" y="-141" type="line"/>
      <point x="175" y="-155"/>
      <point x="261" y="-168"/>
      <point x="299" y="-168" type="qcurve"/>
      <point x="361" y="-168"/>
      <point x="419" y="-137"/>
      <point x="419" y="-103" type="qcurve"/>
      <point x="419" y="-76"/>
      <point x="381" y="-42"/>
      <point x="331" y="-20" type="qcurve"/>
      <point x="208" y="33" type="line"/>
      <point x="125" y="69"/>
      <point x="58" y="142"/>
    </contour>
    <contour>
      <point x="146" y="215" type="qcurve"/>
      <point x="146" y="176"/>
      <point x="196" y="129"/>
      <point x="263" y="99" type="qcurve"/>
      <point x="320" y="74" type="line"/>
      <point x="402" y="117"/>
      <point x="468" y="176"/>
      <point x="468" y="214" type="qcurve"/>
      <point x="468" y="252"/>
      <point x="417" y="300"/>
      <point x="350" y="330" type="qcurve"/>
      <point x="294" y="355" type="line"/>
      <point x="212" y="312"/>
      <point x="146" y="254"/>
    </contour>
  </outline>
</glyph>
<glyph name="ordfeminine" format="2">
  <advance width="614"/>
  <unicode hex="00AA"/>
  <outline>
    <contour>
      <point x="452" y="573" type="qcurve"/>
      <point x="452" y="421" type="line"/>
      <point x="452" y="402"/>
      <point x="468" y="385"/>
      <point x="485" y="384" type="qcurve"/>
      <point x="514" y="382" type="line"/>
      <point x="509" y="328" type="line"/>
      <point x="473" y="329" type="line"/>
      <point x="438" y="329"/>
      <point x="394" y="356"/>
      <point x="385" y="382" type="qcurve"/>
      <point x="375" y="382" type="line"/>
      <point x="338" y="353"/>
      <point x="263" y="325"/>
      <point x="221" y="325" type="qcurve"/>
      <point x="169" y="325"/>
      <point x="107" y="379"/>
      <point x="107" y="425" type="qcurve"/>
      <point x="107" y="479"/>
      <point x="168" y="530"/>
      <point x="240" y="538" type="qcurve"/>
      <point x="383" y="554" type="line"/>
      <point x="383" y="574" type="line"/>
      <point x="383" y="609"/>
      <point x="338" y="634"/>
      <point x="280" y="634" type="qcurve"/>
      <point x="258" y="634"/>
      <point x="187" y="627"/>
      <point x="148" y="621" type="qcurve"/>
      <point x="141" y="678" type="line"/>
      <point x="183" y="684"/>
      <point x="261" y="692"/>
      <point x="283" y="692" type="qcurve"/>
      <point x="375" y="692"/>
      <point x="452" y="639"/>
    </contour>
    <contour>
      <point x="176" y="429" type="qcurve"/>
      <point x="176" y="406"/>
      <point x="206" y="381"/>
      <point x="235" y="381" type="qcurve"/>
      <point x="273" y="381"/>
      <point x="340" y="409"/>
      <point x="383" y="442" type="qcurve"/>
      <point x="383" y="506" type="line"/>
      <point x="256" y="490" type="line"/>
      <point x="213" y="485"/>
      <point x="176" y="458"/>
    </contour>
    <contour>
      <point x="124" y="179" type="line"/>
      <point x="124" y="236" type="line"/>
      <point x="505" y="236" type="line"/>
      <point x="505" y="179" type="line"/>
    </contour>
  </outline>
</glyph>
<glyph name="guillemetleft" format="2">
  <advance width="614"/>
  <unicode hex="00AB"/>
  <outline>
    <contour>
      <point x="296" y="69" type="line"/>
      <point x="296" y="-15" type="line"/>
      <point x="63" y="196" type="line"/>
      <point x="63" y="267" type="line"/>
      <point x="296" y="478" type="line"/>
      <point x="296" y="396" type="line"/>
      <point x="140" y="236" type="line"/>
    </contour>
    <contour>
      <point x="538" y="69" type="line"/>
      <point x="538" y="-15" type="line"/>
      <point x="305" y="196" type="line"/>
      <point x="305" y="267" type="line"/>
      <point x="538" y="478" type="line"/>
      <point x="538" y="396" type="line"/>
      <point x="382" y="236" type="line"/>
    </contour>
  </outline>
</glyph>
<glyph name="registered" format="2">
  <advance width="614"/>
  <unicode hex="00AE"/>
  <outline>
    <contour>
      <point x="307" y="208" type="qcurve"/>
      <point x="198" y="208"/>
      <point x="68" y="348"/>
      <point x="68" y="465" type="qcurve"/>
      <point x="68" y="584"/>
      <point x="197" y="725"/>
      <point x="307" y="725" type="qcurve"/>
      <point x="417" y="725"/>
      <point x="546" y="586"/>
      <point x="546" y="467" type="qcurve"/>
      <point x="546" y="350"/>
      <point x="415" y="208"/>
    </contour>
    <contour>
      <point x="108" y="467" type="qcurve"/>
      <point x="108" y="364"/>
      <point x="216" y="243"/>
      <point x="307" y="243" type="qcurve"/>
      <point x="400" y="243"/>
      <point x="507" y="362"/>
      <point x="507" y="465" type="qcurve"/>
      <point x="507" y="569"/>
      <point x="400" y="689"/>
      <point x="307" y="689" type="qcurve"/>
      <point x="215" y="689"/>
      <point x="108" y="570"/>
    </contour>
    <contour>
      <point x="366" y="417" type="qcurve"/>
      <point x="422" y="345" type="line"/>
      <point x="422" y="343" type="line"/>
      <point x="360" y="343" type="line"/>
      <point x="312" y="412" type="line"/>
      <point x="300" y="430"/>
      <point x="281" y="444"/>
      <point x="265" y="446" type="qcurve"/>
      <point x="265" y="343" type="line"/>
      <point x="217" y="343" type="line"/>
      <point x="217" y="604" type="line"/>
      <point x="327" y="604" type="line"/>
      <point x="368" y="604"/>
      <point x="413" y="566"/>
      <point x="413" y="533" type="qcurve"/>
      <point x="413" y="498"/>
      <point x="369" y="462"/>
      <point x="320" y="455" type="qcurve"/>
      <point x="320" y="453" type="line"/>
      <point x="335" y="448"/>
      <point x="355" y="432"/>
    </contour>
    <contour>
      <point x="364" y="528" type="qcurve"/>
      <point x="364" y="546"/>
      <point x="341" y="563"/>
      <point x="318" y="563" type="qcurve"/>
      <point x="265" y="563" type="line"/>
      <point x="265" y="478" type="line"/>
      <point x="283" y="480" type="line"/>
      <point x="327" y="485"/>
      <point x="364" y="506"/>
    </contour>
  </outline>
</glyph>
<glyph name="degree" format="2">
  <advance width="614"/>
  <unicode hex="00B0"/>
  <outline>
    <contour>
      <point x="307" y="291" type="qcurve"/>
      <point x="216" y="291"/>
      <point x="101" y="401"/>
      <point x="101" y="490" type="qcurve"/>
      <point x="101" y="580"/>
      <point x="217" y="692"/>
      <point x="308" y="692" type="qcurve"/>
      <point x="400" y="692"/>
      <point x="513" y="581"/>
      <point x="513" y="491" type="qcurve"/>
      <point x="513" y="402"/>
      <point x="398" y="291"/>
    </contour>
    <contour>
      <point x="442" y="490" type="qcurve"/>
      <point x="442" y="552"/>
      <point x="366" y="632"/>
      <point x="307" y="632" type="qcurve"/>
      <point x="247" y="632"/>
      <point x="173" y="554"/>
      <point x="173" y="491" type="qcurve"/>
      <point x="173" y="429"/>
      <point x="248" y="351"/>
      <point x="308" y="351" type="qcurve"/>
      <point x="367" y="351"/>
      <point x="442" y="429"/>
    </contour>
  </outline>
</glyph>
<glyph name="mu" format="2">
  <advance width="614"/>
  <unicode hex="00B5"/>
  <outline>
    <contour>
      <point x="251" y="-8" type="qcurve"/>
      <point x="225" y="-8"/>
      <point x="179" y="14"/>
      <point x="163" y="35" type="qcurve"/>
      <point x="181" y="-215" type="line"/>
      <point x="181" y="-230" type="line"/>
      <point x="92" y="-230" type="line"/>
      <point x="92" y="465" type="line"/>
      <point x="178" y="465" type="line"/>
      <point x="178" y="156" type="line"/>
      <point x="178" y="112"/>
      <point x="217" y="71"/>
      <point x="257" y="71" type="qcurve"/>
      <point x="292" y="71"/>
      <point x="369" y="119"/>
      <point x="433" y="180" type="qcurve"/>
      <point x="433" y="465" type="line"/>
      <point x="519" y="465" type="line"/>
      <point x="519" y="0" type="line"/>
      <point x="441" y="0" type="line"/>
      <point x="436" y="102" type="line"/>
      <point x="370" y="36"/>
      <point x="294" y="-8"/>
    </contour>
  </outline>
</glyph>
<glyph name="ordmasculine" format="2">
  <advance width="614"/>
  <unicode hex="00BA"/>
  <outline>
    <contour>
      <point x="498" y="508" type="qcurve"/>
      <point x="498" y="428"/>
      <point x="389" y="323"/>
      <point x="306" y="323" type="qcurve"/>
      <point x="223" y="323"/>
      <point x="116" y="426"/>
      <point x="116" y="507" type="qcurve"/>
      <point x="116" y="588"/>
      <point x="225" y="692"/>
      <point x="308" y="692" type="qcurve"/>
      <point x="390" y="692"/>
      <point x="498" y="588"/>
    </contour>
    <contour>
      <point x="186" y="507" type="qcurve"/>
      <point x="186" y="451"/>
      <point x="253" y="382"/>
      <point x="307" y="382" type="qcurve"/>
      <point x="361" y="382"/>
      <point x="429" y="452"/>
      <point x="429" y="508" type="qcurve"/>
      <point x="429" y="564"/>
      <point x="360" y="633"/>
      <point x="306" y="633" type="qcurve"/>
      <point x="253" y="633"/>
      <point x="186" y="564"/>
    </contour>
    <contour>
      <point x="124" y="179" type="line"/>
      <point x="124" y="236" type="line"/>
      <point x="495" y="236" type="line"/>
      <point x="495" y="179" type="line"/>
    </contour>
  </outline>
</glyph>
<glyph name="guillemetright" format="2">
  <advance width="614"/>
  <unicode hex="00BB"/>
  <outline>
    <contour>
      <point x="318" y="393" type="line"/>
      <point x="318" y="478" type="line"/>
      <point x="551" y="266" type="line"/>
      <point x="551" y="195" type="line"/>
      <point x="318" y="-15" type="line"/>
      <point x="318" y="66" type="line"/>
      <point x="474" y="227" type="line"/>
    </contour>
    <contour>
      <point x="76" y="393" type="line"/>
      <point x="76" y="478" type="line"/>
      <point x="309" y="266" type="line"/>
      <point x="309" y="195" type="line"/>
      <point x="76" y="-15" type="line"/>
      <point x="76" y="66" type="line"/>
      <point x="232" y="227" type="line"/>
    </contour>
  </outline>
</glyph>
<glyph name="AE" format="2">
  <advance width="614"/>
  <unicode hex="00C6"/>
  <outline>
    <contour>
      <point x="137" y="182" type="line"/>
      <point x="78" y="0" type="line"/>
      <point x="-7" y="0" type="line"/>
      <point x="217" y="655" type="line"/>
      <point x="586" y="655" type="line"/>
      <point x="586" y="585" type="line"/>
      <point x="382" y="585" type="line"/>
      <point x="382" y="365" type="line"/>
      <point x="562" y="365" type="line"/>
      <point x="562" y="297" type="line"/>
      <point x="382" y="297" type="line"/>
      <point x="382" y="70" type="line"/>
      <point x="586" y="70" type="line"/>
      <point x="586" y="0" type="line"/>
      <point x="298" y="0" type="line"/>
      <point x="298" y="182" type="line"/>
    </contour>
    <contour>
      <point x="269" y="585" type="line"/>
      <point x="159" y="249" type="line"/>
      <point x="298" y="249" type="line"/>
      <point x="298" y="585" type="line"/>
    </contour>
  </outline>
</glyph>
<glyph name="ae" format="2">
  <advance width="614"/>
  <unicode hex="00E6"/>
  <outline>
    <contour>
      <point x="472" y="61" type="qcurve"/>
      <point x="515" y="59" type="line"/>
      <point x="512" y="-7" type="line"/>
      <point x="454" y="-6" type="line"/>
      <point x="400" y="-5"/>
      <point x="325" y="28"/>
      <point x="301" y="60" type="qcurve"/>
      <point x="282" y="60" type="line"/>
      <point x="242" y="24"/>
      <point x="177" y="-7"/>
      <point x="143" y="-7" type="qcurve"/>
      <point x="89" y="-7"/>
      <point x="30" y="62"/>
      <point x="30" y="125" type="qcurve"/>
      <point x="30" y="187"/>
      <point x="95" y="254"/>
      <point x="170" y="268" type="qcurve"/>
      <point x="260" y="286" type="line"/>
      <point x="260" y="323" type="line"/>
      <point x="260" y="372"/>
      <point x="232" y="408"/>
      <point x="195" y="408" type="qcurve"/>
      <point x="173" y="408"/>
      <point x="116" y="402"/>
      <point x="79" y="395" type="qcurve"/>
      <point x="71" y="463" type="line"/>
      <point x="109" y="469"/>
      <point x="178" y="476"/>
      <point x="206" y="476" type="qcurve"/>
      <point x="254" y="476"/>
      <point x="310" y="442"/>
      <point x="322" y="405" type="qcurve"/>
      <point x="345" y="439"/>
      <point x="403" y="476"/>
      <point x="436" y="476" type="qcurve"/>
      <point x="506" y="476"/>
      <point x="588" y="348"/>
      <point x="588" y="238" type="qcurve"/>
      <point x="588" y="229"/>
      <point x="586" y="211"/>
      <point x="584" y="202" type="qcurve"/>
      <point x="341" y="202" type="line"/>
      <point x="345" y="129"/>
      <point x="406" y="63"/>
    </contour>
    <contour>
      <point x="432" y="409" type="qcurve"/>
      <point x="397" y="409"/>
      <point x="348" y="332"/>
      <point x="342" y="266" type="qcurve"/>
      <point x="506" y="266" type="line"/>
      <point x="503" y="335"/>
      <point x="464" y="409"/>
    </contour>
    <contour>
      <point x="113" y="131" type="qcurve"/>
      <point x="113" y="96"/>
      <point x="140" y="60"/>
      <point x="166" y="60" type="qcurve"/>
      <point x="186" y="60"/>
      <point x="226" y="80"/>
      <point x="274" y="117" type="qcurve"/>
      <point x="267" y="138"/>
      <point x="260" y="194"/>
      <point x="260" y="230" type="qcurve"/>
      <point x="191" y="213" type="line"/>
      <point x="147" y="202"/>
      <point x="113" y="167"/>
    </contour>
  </outline>
</glyph>
<glyph name="divide" format="2">
  <advance width="614"/>
  <unicode hex="00F7"/>
  <outline>
    <contour>
      <point x="377" y="532" type="qcurve"/>
      <point x="377" y="503"/>
      <point x="342" y="472"/>
      <point x="308" y="472" type="qcurve"/>
      <point x="274" y="472"/>
      <point x="239" y="502"/>
      <point x="239" y="532" type="qcurve"/>
      <point x="239" y="561"/>
      <point x="275" y="592"/>
      <point x="308" y="592" type="qcurve"/>
      <point x="342" y="592"/>
      <point x="377" y="561"/>
    </contour>
    <contour>
      <point x="544" y="292" type="line"/>
      <point x="70" y="292" type="line"/>
      <point x="70" y="363" type="line"/>
      <point x="544" y="363" type="line"/>
    </contour>
    <contour>
      <point x="377" y="124" type="qcurve"/>
      <point x="377" y="94"/>
      <point x="341" y="63"/>
      <point x="308" y="63" type="qcurve"/>
      <point x="274" y="63"/>
      <point x="239" y="93"/>
      <point x="239" y="123" type="qcurve"/>
      <point x="239" y="152"/>
      <point x="275" y="184"/>
      <point x="308" y="184" type="qcurve"/>
      <point x="342" y="184"/>
      <point x="377" y="153"/>
    </contour>
  </outline>
</glyph>
<glyph name="oslash" format="2">
  <advance width="614"/>
  <unicode hex="00F8"/>
  <outline>
    <contour>
      <point x="550" y="231" type="qcurve"/>
      <point x="550" y="123"/>
      <point x="412" y="-15"/>
      <point x="305" y="-15" type="qcurve"/>
      <point x="273" y="-15"/>
      <point x="212" y="2"/>
      <point x="184" y="18" type="qcurve"/>
      <point x="124" y="-71" type="line"/>
      <point x="36" y="-71" type="line"/>
      <point x="136" y="56" type="line"/>
      <point x="101" y="92"/>
      <point x="64" y="183"/>
      <point x="64" y="234" type="qcurve"/>
      <point x="64" y="342"/>
      <point x="202" y="480"/>
      <point x="309" y="480" type="qcurve"/>
      <point x="340" y="480"/>
      <point x="401" y="464"/>
      <point x="428" y="448" type="qcurve"/>
      <point x="490" y="536" type="line"/>
      <point x="578" y="536" type="line"/>
      <point x="478" y="409" type="line"/>
      <point x="513" y="374"/>
      <point x="550" y="282"/>
    </contour>
    <contour>
      <point x="307" y="409" type="qcurve"/>
      <point x="237" y="409"/>
      <point x="151" y="313"/>
      <point x="151" y="233" type="qcurve"/>
      <point x="151" y="197"/>
      <point x="168" y="137"/>
      <point x="185" y="115" type="qcurve"/>
      <point x="387" y="389" type="line"/>
      <point x="370" y="399"/>
      <point x="330" y="409"/>
    </contour>
    <contour>
      <point x="307" y="57" type="qcurve"/>
      <point x="377" y="57"/>
      <point x="463" y="153"/>
      <point x="463" y="232" type="qcurve"/>
      <point x="463" y="268"/>
      <point x="446" y="328"/>
      <point x="429" y="351" type="qcurve"/>
      <point x="227" y="77" type="line"/>
      <point x="245" y="67"/>
      <point x="285" y="57"/>
    </contour>
  </outline>
</glyph>
<glyph name="Aogonek" format="2">
  <advance width="614"/>
  <unicode hex="0104"/>
  <outline>
    <contour>
      <point x="184" y="178" type="line"/>
      <point x="128" y="0" type="line"/>
      <point x="40" y="0" type="line"/>
      <point x="254" y="655" type="line"/>
      <point x="361" y="655" type="line"/>
      <point x="574" y="0" type="line"/>
      <point x="546" y="0" type="line"/>
      <point x="513" y="-45"/>
      <point x="482" y="-106"/>
      <point x="482" y="-129" type="qcurve"/>
      <point x="482" y="-150"/>
      <point x="504" y="-171"/>
      <point x="528" y="-172" type="qcurve"/>
      <point x="604" y="-176" type="line"/>
      <point x="598" y="-235" type="line"/>
      <point x="504" y="-230" type="line"/>
      <point x="456" y="-227"/>
      <point x="412" y="-192"/>
      <point x="412" y="-155" type="qcurve"/>
      <point x="412" y="-128"/>
      <point x="452" y="-56"/>
      <point x="497" y="0" type="qcurve"/>
      <point x="483" y="0" type="line"/>
      <point x="425" y="178" type="line"/>
    </contour>
    <contour>
      <point x="304" y="566" type="line"/>
      <point x="206" y="248" type="line"/>
      <point x="404" y="248" type="line"/>
    </contour>
  </outline>
</glyph>
<glyph name="aogonek" format="2">
  <advance width="614"/>
  <unicode hex="0105"/>
  <outline>
    <contour>
      <point x="362" y="-155" type="qcurve"/>
      <point x="362" y="-127"/>
      <point x="407" y="-50"/>
      <point x="456" y="10" type="qcurve"/>
      <point x="438" y="18"/>
      <point x="414" y="45"/>
      <point x="408" y="66" type="qcurve"/>
      <point x="399" y="66" type="line"/>
      <point x="353" y="28"/>
      <point x="260" y="-7"/>
      <point x="208" y="-7" type="qcurve"/>
      <point x="143" y="-7"/>
      <point x="67" y="64"/>
      <point x="67" y="125" type="qcurve"/>
      <point x="67" y="194"/>
      <point x="142" y="258"/>
      <point x="232" y="268" type="qcurve"/>
      <point x="405" y="288" type="line"/>
      <point x="405" y="323" type="line"/>
      <point x="405" y="370"/>
      <point x="353" y="403"/>
      <point x="283" y="403" type="qcurve"/>
      <point x="254" y="403"/>
      <point x="165" y="394"/>
      <point x="118" y="386" type="qcurve"/>
      <point x="109" y="455" type="line"/>
      <point x="159" y="464"/>
      <point x="252" y="473"/>
      <point x="286" y="473" type="qcurve"/>
      <point x="396" y="473"/>
      <point x="489" y="405"/>
      <point x="489" y="321" type="qcurve"/>
      <point x="489" y="117" type="line"/>
      <point x="489" y="87"/>
      <point x="505" y="67"/>
      <point x="530" y="65" type="qcurve"/>
      <point x="575" y="62" type="line"/>
      <point x="569" y="-4" type="line"/>
      <point x="536" y="-3"/>
      <point x="506" y="-1"/>
      <point x="495" y="0" type="qcurve"/>
      <point x="463" y="-45"/>
      <point x="432" y="-106"/>
      <point x="432" y="-129" type="qcurve"/>
      <point x="432" y="-151"/>
      <point x="454" y="-171"/>
      <point x="478" y="-172" type="qcurve"/>
      <point x="553" y="-176" type="line"/>
      <point x="548" y="-235" type="line"/>
      <point x="453" y="-230" type="line"/>
      <point x="405" y="-227"/>
      <point x="362" y="-192"/>
    </contour>
    <contour>
      <point x="152" y="131" type="qcurve"/>
      <point x="152" y="96"/>
      <point x="190" y="60"/>
      <point x="227" y="60" type="qcurve"/>
      <point x="268" y="60"/>
      <point x="348" y="95"/>
      <point x="405" y="137" type="qcurve"/>
      <point x="405" y="232" type="line"/>
      <point x="247" y="211" type="line"/>
      <point x="196" y="204"/>
      <point x="152" y="169"/>
    </contour>
  </outline>
</glyph>
<glyph name="dcroat" format="2">
  <advance width="614"/>
  <unicode hex="0111"/>
  <outline>
    <contour>
      <point x="257" y="-9" type="qcurve"/>
      <point x="171" y="-9"/>
      <point x="59" y="111"/>
      <point x="59" y="205" type="qcurve"/>
      <point x="59" y="302"/>
      <point x="187" y="428"/>
      <point x="284" y="428" type="qcurve"/>
      <point x="321" y="428"/>
      <point x="387" y="402"/>
      <point x="420" y="374" type="qcurve"/>
      <point x="420" y="529" type="line"/>
      <point x="242" y="529" type="line"/>
      <point x="242" y="586" type="line"/>
      <point x="420" y="586" type="line"/>
      <point x="420" y="710" type="line"/>
      <point x="506" y="710" type="line"/>
      <point x="506" y="586" type="line"/>
      <point x="589" y="586" type="line"/>
      <point x="589" y="529" type="line"/>
      <point x="506" y="529" type="line"/>
      <point x="506" y="0" type="line"/>
      <point x="433" y="0" type="line"/>
      <point x="425" y="77" type="line"/>
      <point x="381" y="31"/>
      <point x="304" y="-9"/>
    </contour>
    <contour>
      <point x="294" y="360" type="qcurve"/>
      <point x="227" y="360"/>
      <point x="147" y="276"/>
      <point x="147" y="208" type="qcurve"/>
      <point x="147" y="144"/>
      <point x="222" y="62"/>
      <point x="279" y="62" type="qcurve"/>
      <point x="313" y="62"/>
      <point x="377" y="99"/>
      <point x="420" y="142" type="qcurve"/>
      <point x="420" y="300" type="line"/>
      <point x="387" y="331"/>
      <point x="326" y="360"/>
    </contour>
  </outline>
</glyph>
<glyph name="Eogonek" format="2">
  <advance width="614"/>
  <unicode hex="0118"/>
  <outline>
    <contour>
      <point x="353" y="-155" type="qcurve"/>
      <point x="353" y="-128"/>
      <point x="393" y="-56"/>
      <point x="438" y="0" type="qcurve"/>
      <point x="98" y="0" type="line"/>
      <point x="98" y="655" type="line"/>
      <point x="535" y="655" type="line"/>
      <point x="535" y="583" type="line"/>
      <point x="185" y="583" type="line"/>
      <point x="185" y="367" type="line"/>
      <point x="481" y="367" type="line"/>
      <point x="481" y="295" type="line"/>
      <point x="185" y="295" type="line"/>
      <point x="185" y="72" type="line"/>
      <point x="542" y="72" type="line"/>
      <point x="542" y="0" type="line"/>
      <point x="486" y="0" type="line"/>
      <point x="454" y="-45"/>
      <point x="423" y="-106"/>
      <point x="423" y="-129" type="qcurve"/>
      <point x="423" y="-151"/>
      <point x="445" y="-171"/>
      <point x="469" y="-172" type="qcurve"/>
      <point x="545" y="-176" type="line"/>
      <point x="539" y="-235" type="line"/>
      <point x="445" y="-230" type="line"/>
      <point x="397" y="-227"/>
      <point x="353" y="-192"/>
    </contour>
  </outline>
</glyph>
<glyph name="eogonek" format="2">
  <advance width="614"/>
  <unicode hex="0119"/>
  <outline>
    <contour>
      <point x="299" y="-155" type="qcurve"/>
      <point x="299" y="-127"/>
      <point x="346" y="-57"/>
      <point x="396" y="-6" type="qcurve"/>
      <point x="332" y="-5" type="line"/>
      <point x="203" y="-3"/>
      <point x="75" y="112"/>
      <point x="75" y="225" type="qcurve"/>
      <point x="75" y="336"/>
      <point x="212" y="480"/>
      <point x="317" y="480" type="qcurve"/>
      <point x="422" y="480"/>
      <point x="540" y="353"/>
      <point x="540" y="238" type="qcurve"/>
      <point x="540" y="227"/>
      <point x="538" y="209"/>
      <point x="537" y="202" type="qcurve"/>
      <point x="160" y="202" type="line"/>
      <point x="167" y="132"/>
      <point x="260" y="66"/>
      <point x="357" y="63" type="qcurve"/>
      <point x="453" y="60" type="line"/>
      <point x="450" y="-7" type="line"/>
      <point x="407" y="-54"/>
      <point x="369" y="-110"/>
      <point x="369" y="-129" type="qcurve"/>
      <point x="369" y="-151"/>
      <point x="391" y="-171"/>
      <point x="415" y="-172" type="qcurve"/>
      <point x="491" y="-176" type="line"/>
      <point x="485" y="-235" type="line"/>
      <point x="390" y="-230" type="line"/>
      <point x="342" y="-227"/>
      <point x="299" y="-192"/>
    </contour>
    <contour>
      <point x="317" y="412" type="qcurve"/>
      <point x="256" y="412"/>
      <point x="171" y="333"/>
      <point x="162" y="266" type="qcurve"/>
      <point x="455" y="266" type="line"/>
      <point x="450" y="338"/>
      <point x="380" y="412"/>
    </contour>
  </outline>
</glyph>
<glyph name="hbar" format="2">
  <advance width="614"/>
  <unicode hex="0127"/>
  <outline>
    <contour>
      <point x="374" y="586" type="line"/>
      <point x="374" y="529" type="line"/>
      <point x="196" y="529" type="line"/>
      <point x="196" y="321" type="line"/>
      <point x="262" y="385"/>
      <point x="339" y="428"/>
      <point x="381" y="428" type="qcurve"/>
      <point x="449" y="428"/>
      <point x="522" y="351"/>
      <point x="522" y="280" type="qcurve"/>
      <point x="522" y="0" type="line"/>
      <point x="436" y="0" type="line"/>
      <point x="436" y="265" type="line"/>
      <point x="436" y="309"/>
      <point x="398" y="350"/>
      <point x="357" y="350" type="qcurve"/>
      <point x="330" y="350"/>
      <point x="269" y="311"/>
      <point x="196" y="241" type="qcurve"/>
      <point x="196" y="0" type="line"/>
      <point x="110" y="0" type="line"/>
      <point x="110" y="529" type="line"/>
      <point x="27" y="529" type="line"/>
      <point x="27" y="586" type="line"/>
      <point x="110" y="586" type="line"/>
      <point x="110" y="710" type="line"/>
      <point x="196" y="710" type="line"/>
      <point x="196" y="586" type="line"/>
    </contour>
  </outline>
</glyph>
<glyph name="iogonek" format="2">
  <advance width="614"/>
  <unicode hex="012F"/>
  <outline>
    <contour>
      <point x="385" y="665" type="qcurve"/>
      <point x="385" y="636"/>
      <point x="345" y="603"/>
      <point x="310" y="603" type="qcurve"/>
      <point x="276" y="603"/>
      <point x="237" y="637"/>
      <point x="237" y="667" type="qcurve"/>
      <point x="237" y="695"/>
      <point x="278" y="730"/>
      <point x="312" y="730" type="qcurve"/>
      <point x="348" y="730"/>
      <point x="385" y="697"/>
    </contour>
    <contour>
      <point x="114" y="0" type="line"/>
      <point x="114" y="72" type="line"/>
      <point x="279" y="72" type="line"/>
      <point x="279" y="393" type="line"/>
      <point x="134" y="393" type="line"/>
      <point x="134" y="465" type="line"/>
      <point x="365" y="465" type="line"/>
      <point x="365" y="72" type="line"/>
      <point x="531" y="72" type="line"/>
      <point x="531" y="0" type="line"/>
      <point x="348" y="0" type="line"/>
      <point x="315" y="-45"/>
      <point x="284" y="-106"/>
      <point x="284" y="-129" type="qcurve"/>
      <point x="284" y="-151"/>
      <point x="306" y="-171"/>
      <point x="330" y="-172" type="qcurve"/>
      <point x="406" y="-176" type="line"/>
      <point x="400" y="-235" type="line"/>
      <point x="306" y="-230" type="line"/>
      <point x="258" y="-227"/>
      <point x="214" y="-192"/>
      <point x="214" y="-155" type="qcurve"/>
      <point x="214" y="-128"/>
      <point x="254" y="-56"/>
      <point x="299" y="0" type="qcurve"/>
    </contour>
  </outline>
</glyph>
<glyph name="Lslash" format="2">
  <advance width="614"/>
  <unicode hex="0141"/>
  <outline>
    <contour>
      <point x="125" y="250" type="line"/>
      <point x="42" y="193" type="line"/>
      <point x="42" y="260" type="line"/>
      <point x="125" y="317" type="line"/>
      <point x="125" y="655" type="line"/>
      <point x="212" y="655" type="line"/>
      <point x="212" y="373" type="line"/>
      <point x="411" y="511" type="line"/>
      <point x="411" y="445" type="line"/>
      <point x="212" y="307" type="line"/>
      <point x="212" y="71" type="line"/>
      <point x="543" y="71" type="line"/>
      <point x="543" y="0" type="line"/>
      <point x="125" y="0" type="line"/>
    </contour>
  </outline>
</glyph>
<glyph name="lslash" format="2">
  <advance width="614"/>
  <unicode hex="0142"/>
  <outline>
    <contour>
      <point x="242" y="320" type="line"/>
      <point x="94" y="239" type="line"/>
      <point x="94" y="309" type="line"/>
      <point x="242" y="390" type="line"/>
      <point x="242" y="638" type="line"/>
      <point x="59" y="638" type="line"/>
      <point x="59" y="710" type="line"/>
      <point x="327" y="710" type="line"/>
      <point x="327" y="424" type="line"/>
      <point x="490" y="514" type="line"/>
      <point x="490" y="444" type="line"/>
      <point x="327" y="354" type="line"/>
      <point x="327" y="174" type="line"/>
      <point x="327" y="121"/>
      <point x="368" y="76"/>
      <point x="419" y="74" type="qcurve"/>
      <point x="528" y="67" type="line"/>
      <point x="523" y="-7" type="line"/>
      <point x="404" y="0" type="line"/>
      <point x="312" y="5"/>
      <point x="242" y="77"/>
      <point x="242" y="165" type="qcurve"/>
    </contour>
  </outline>
</glyph>
<glyph name="eng" format="2">
  <advance width="614"/>
  <unicode hex="014B"/>
  <outline>
    <contour>
      <point x="95" y="465" type="line"/>
      <point x="168" y="465" type="line"/>
      <point x="177" y="361" type="line"/>
      <point x="243" y="423"/>
      <point x="333" y="472"/>
      <point x="381" y="472" type="qcurve"/>
      <point x="449" y="472"/>
      <point x="522" y="395"/>
      <point x="522" y="324" type="qcurve"/>
      <point x="522" y="-55" type="line"/>
      <point x="522" y="-145"/>
      <point x="441" y="-224"/>
      <point x="344" y="-230" type="qcurve"/>
      <point x="220" y="-238" type="line"/>
      <point x="216" y="-164" type="line"/>
      <point x="339" y="-155" type="line"/>
      <point x="392" y="-151"/>
      <point x="436" y="-106"/>
      <point x="436" y="-56" type="qcurve"/>
      <point x="436" y="309" type="line"/>
      <point x="436" y="353"/>
      <point x="398" y="394"/>
      <point x="357" y="394" type="qcurve"/>
      <point x="322" y="394"/>
      <point x="245" y="346"/>
      <point x="181" y="286" type="qcurve"/>
      <point x="181" y="0" type="line"/>
      <point x="95" y="0" type="line"/>
    </contour>
  </outline>
</glyph>
<glyph name="OE" format="2">
  <advance width="614"/>
  <unicode hex="0152"/>
  <outline>
    <contour>
      <point x="587" y="0" type="line"/>
      <point x="278" y="0" type="line"/>
      <point x="158" y="0"/>
      <point x="26" y="167"/>
      <point x="26" y="319" type="qcurve"/>
      <point x="26" y="480"/>
      <point x="174" y="655"/>
      <point x="312" y="655" type="qcurve"/>
      <point x="587" y="655" type="line"/>
      <point x="587" y="585" type="line"/>
      <point x="383" y="585" type="line"/>
      <point x="383" y="365" type="line"/>
      <point x="563" y="365" type="line"/>
      <point x="563" y="297" type="line"/>
      <point x="383" y="297" type="line"/>
      <point x="383" y="70" type="line"/>
      <point x="587" y="70" type="line"/>
    </contour>
    <contour>
      <point x="112" y="321" type="qcurve"/>
      <point x="112" y="201"/>
      <point x="186" y="71"/>
      <point x="254" y="70" type="qcurve"/>
      <point x="299" y="68" type="line"/>
      <point x="299" y="586" type="line"/>
      <point x="281" y="585" type="line"/>
      <point x="198" y="583"/>
      <point x="112" y="449"/>
    </contour>
  </outline>
</glyph>
<glyph name="oe" format="2">
  <advance width="614"/>
  <unicode hex="0153"/>
  <outline>
    <contour>
      <point x="311" y="80" type="qcurve"/>
      <point x="291" y="35"/>
      <point x="228" y="-14"/>
      <point x="190" y="-14" type="qcurve"/>
      <point x="117" y="-14"/>
      <point x="26" y="123"/>
      <point x="26" y="234" type="qcurve"/>
      <point x="26" y="341"/>
      <point x="121" y="480"/>
      <point x="194" y="480" type="qcurve"/>
      <point x="233" y="480"/>
      <point x="296" y="426"/>
      <point x="316" y="375" type="qcurve"/>
      <point x="338" y="425"/>
      <point x="403" y="480"/>
      <point x="441" y="480" type="qcurve"/>
      <point x="508" y="480"/>
      <point x="588" y="350"/>
      <point x="588" y="238" type="qcurve"/>
      <point x="588" y="229"/>
      <point x="586" y="211"/>
      <point x="584" y="202" type="qcurve"/>
      <point x="352" y="202" type="line"/>
      <point x="355" y="129"/>
      <point x="411" y="63"/>
      <point x="471" y="61" type="qcurve"/>
      <point x="514" y="59" type="line"/>
      <point x="511" y="-7" type="line"/>
      <point x="452" y="-6" type="line"/>
      <point x="400" y="-5"/>
      <point x="331" y="37"/>
    </contour>
    <contour>
      <point x="112" y="233" type="qcurve"/>
      <point x="112" y="151"/>
      <point x="157" y="55"/>
      <point x="194" y="55" type="qcurve"/>
      <point x="231" y="55"/>
      <point x="274" y="150"/>
      <point x="274" y="232" type="qcurve"/>
      <point x="274" y="313"/>
      <point x="230" y="411"/>
      <point x="194" y="411" type="qcurve"/>
      <point x="157" y="411"/>
      <point x="112" y="314"/>
    </contour>
    <contour>
      <point x="438" y="413" type="qcurve"/>
      <point x="404" y="413"/>
      <point x="358" y="334"/>
      <point x="352" y="266" type="qcurve"/>
      <point x="507" y="266" type="line"/>
      <point x="504" y="336"/>
      <point x="467" y="413"/>
    </contour>
  </outline>
</glyph>
<glyph name="Scedilla" format="2">
  <advance width="614"/>
  <unicode hex="015E"/>
  <outline>
    <contour>
      <point x="308" y="59" type="qcurve"/>
      <point x="378" y="59"/>
      <point x="452" y="118"/>
      <point x="452" y="173" type="qcurve"/>
      <point x="452" y="215"/>
      <point x="398" y="266"/>
      <point x="337" y="285" type="qcurve"/>
      <point x="266" y="308" type="line"/>
      <point x="178" y="335"/>
      <point x="96" y="426"/>
      <point x="96" y="497" type="qcurve"/>
      <point x="96" y="572"/>
      <point x="218" y="668"/>
      <point x="320" y="668" type="qcurve"/>
      <point x="368" y="668"/>
      <point x="457" y="654"/>
      <point x="521" y="636" type="qcurve"/>
      <point x="506" y="561" type="line"/>
      <point x="446" y="579"/>
      <point x="355" y="596"/>
      <point x="318" y="596" type="qcurve"/>
      <point x="253" y="596"/>
      <point x="184" y="548"/>
      <point x="184" y="503" type="qcurve"/>
      <point x="184" y="458"/>
      <point x="237" y="405"/>
      <point x="300" y="385" type="qcurve"/>
      <point x="372" y="362" type="line"/>
      <point x="464" y="333"/>
      <point x="540" y="249"/>
      <point x="540" y="177" type="qcurve"/>
      <point x="540" y="93"/>
      <point x="428" y="-8"/>
      <point x="328" y="-13" type="qcurve"/>
      <point x="311" y="-64" type="line"/>
      <point x="392" y="-72"/>
      <point x="462" y="-112"/>
      <point x="462" y="-153" type="qcurve"/>
      <point x="462" y="-192"/>
      <point x="414" y="-234"/>
      <point x="361" y="-247" type="qcurve"/>
      <point x="332" y="-255"/>
      <point x="257" y="-266"/>
      <point x="209" y="-270" type="qcurve"/>
      <point x="193" y="-215" type="line"/>
      <point x="301" y="-206"/>
      <point x="393" y="-180"/>
      <point x="393" y="-155" type="qcurve"/>
      <point x="393" y="-132"/>
      <point x="329" y="-113"/>
      <point x="253" y="-111" type="qcurve"/>
      <point x="247" y="-101" type="line"/>
      <point x="278" y="-12" type="line"/>
      <point x="229" y="-10"/>
      <point x="127" y="14"/>
      <point x="70" y="36" type="qcurve"/>
      <point x="91" y="110" type="line"/>
      <point x="160" y="85"/>
      <point x="270" y="59"/>
    </contour>
  </outline>
</glyph>
<glyph name="tcedilla" format="2">
  <advance width="614"/>
  <unicode hex="0163"/>
  <outline>
    <contour>
      <point x="219" y="177" type="qcurve"/>
      <point x="219" y="393" type="line"/>
      <point x="62" y="393" type="line"/>
      <point x="62" y="465" type="line"/>
      <point x="220" y="465" type="line"/>
      <point x="220" y="638" type="line"/>
      <point x="303" y="638" type="line"/>
      <point x="303" y="465" type="line"/>
      <point x="510" y="465" type="line"/>
      <point x="510" y="393" type="line"/>
      <point x="304" y="393" type="line"/>
      <point x="304" y="189" type="line"/>
      <point x="304" y="125"/>
      <point x="342" y="77"/>
      <point x="397" y="74" type="qcurve"/>
      <point x="538" y="66" type="line"/>
      <point x="532" y="-7" type="line"/>
      <point x="377" y="0" type="line"/>
      <point x="375" y="0"/>
      <point x="353" y="2"/>
      <point x="346" y="3" type="qcurve"/>
      <point x="326" y="-59" type="line"/>
      <point x="407" y="-67"/>
      <point x="477" y="-107"/>
      <point x="477" y="-148" type="qcurve"/>
      <point x="477" y="-187"/>
      <point x="429" y="-229"/>
      <point x="376" y="-242" type="qcurve"/>
      <point x="347" y="-250"/>
      <point x="272" y="-261"/>
      <point x="224" y="-265" type="qcurve"/>
      <point x="208" y="-210" type="line"/>
      <point x="316" y="-201"/>
      <point x="408" y="-175"/>
      <point x="408" y="-150" type="qcurve"/>
      <point x="408" y="-127"/>
      <point x="344" y="-108"/>
      <point x="268" y="-106" type="qcurve"/>
      <point x="262" y="-96" type="line"/>
      <point x="300" y="12" type="line"/>
      <point x="256" y="26"/>
      <point x="219" y="101"/>
    </contour>
  </outline>
</glyph>
<glyph name="tbar" format="2">
  <advance width="614"/>
  <unicode hex="0167"/>
  <outline>
    <contour>
      <point x="219" y="217" type="line"/>
      <point x="104" y="217" type="line"/>
      <point x="104" y="274" type="line"/>
      <point x="219" y="274" type="line"/>
      <point x="219" y="396" type="line"/>
      <point x="62" y="396" type="line"/>
      <point x="62" y="465" type="line"/>
      <point x="220" y="465" type="line"/>
      <point x="220" y="638" type="line"/>
      <point x="303" y="638" type="line"/>
      <point x="303" y="465" type="line"/>
      <point x="510" y="465" type="line"/>
      <point x="510" y="396" type="line"/>
      <point x="304" y="396" type="line"/>
      <point x="304" y="274" type="line"/>
      <point x="459" y="274" type="line"/>
      <point x="459" y="217" type="line"/>
      <point x="304" y="217" type="line"/>
      <point x="304" y="186" type="line"/>
      <point x="304" y="122"/>
      <point x="342" y="74"/>
      <point x="396" y="71" type="qcurve"/>
      <point x="538" y="63" type="line"/>
      <point x="532" y="-7" type="line"/>
      <point x="377" y="0" type="line"/>
      <point x="285" y="5"/>
      <point x="219" y="79"/>
      <point x="219" y="177" type="qcurve"/>
    </contour>
  </outline>
</glyph>
<glyph name="uogonek" format="2">
  <advance width="614"/>
  <unicode hex="0173"/>
  <outline>
    <contour>
      <point x="372" y="-155" type="qcurve"/>
      <point x="372" y="-128"/>
      <point x="412" y="-56"/>
      <point x="457" y="0" type="qcurve"/>
      <point x="441" y="0" type="line"/>
      <point x="436" y="103" type="line"/>
      <point x="371" y="41"/>
      <point x="281" y="-7"/>
      <point x="233" y="-7" type="qcurve"/>
      <point x="165" y="-7"/>
      <point x="92" y="70"/>
      <point x="92" y="141" type="qcurve"/>
      <point x="92" y="465" type="line"/>
      <point x="178" y="465" type="line"/>
      <point x="178" y="156" type="line"/>
      <point x="178" y="112"/>
      <point x="217" y="71"/>
      <point x="257" y="71" type="qcurve"/>
      <point x="292" y="71"/>
      <point x="369" y="119"/>
      <point x="433" y="180" type="qcurve"/>
      <point x="433" y="465" type="line"/>
      <point x="519" y="465" type="line"/>
      <point x="519" y="0" type="line"/>
      <point x="506" y="0" type="line"/>
      <point x="474" y="-45"/>
      <point x="443" y="-106"/>
      <point x="443" y="-129" type="qcurve"/>
      <point x="443" y="-151"/>
      <point x="464" y="-171"/>
      <point x="488" y="-172" type="qcurve"/>
      <point x="564" y="-176" type="line"/>
      <point x="558" y="-235" type="line"/>
      <point x="464" y="-230" type="line"/>
      <point x="416" y="-227"/>
      <point x="372" y="-192"/>
    </contour>
  </outline>
</glyph>
<glyph name="uhorn" format="2">
  <advance width="614"/>
  <unicode hex="01B0"/>
  <outline>
    <contour>
      <point x="519" y="412" type="qcurve"/>
      <point x="519" y="0" type="line"/>
      <point x="441" y="0" type="line"/>
      <point x="436" y="103" type="line"/>
      <point x="371" y="41"/>
      <point x="281" y="-7"/>
      <point x="233" y="-7" type="qcurve"/>
      <point x="165" y="-7"/>
      <point x="92" y="70"/>
      <point x="92" y="141" type="qcurve"/>
      <point x="92" y="465" type="line"/>
      <point x="178" y="465" type="line"/>
      <point x="178" y="156" type="line"/>
      <point x="178" y="112"/>
      <point x="217" y="71"/>
      <point x="257" y="71" type="qcurve"/>
      <point x="292" y="71"/>
      <point x="369" y="119"/>
      <point x="433" y="180" type="qcurve"/>
      <point x="433" y="465" type="line"/>
      <point x="462" y="465" type="line"/>
      <point x="520" y="465"/>
      <point x="558" y="506"/>
      <point x="561" y="577" type="qcurve"/>
      <point x="641" y="577" type="line"/>
      <point x="639" y="495"/>
      <point x="581" y="416"/>
    </contour>
  </outline>
</glyph>
<glyph name="Oogonek" format="2">
  <advance width="614"/>
  <unicode hex="01EA"/>
  <outline>
    <contour>
      <point x="209" y="-160" type="qcurve"/>
      <point x="209" y="-134"/>
      <point x="246" y="-66"/>
      <point x="287" y="-14" type="qcurve"/>
      <point x="177" y="-7"/>
      <point x="56" y="170"/>
      <point x="56" y="325" type="qcurve"/>
      <point x="56" y="488"/>
      <point x="190" y="670"/>
      <point x="308" y="670" type="qcurve"/>
      <point x="426" y="670"/>
      <point x="558" y="491"/>
      <point x="558" y="329" type="qcurve"/>
      <point x="558" y="177"/>
      <point x="442" y="-1"/>
      <point x="337" y="-13" type="qcurve"/>
      <point x="308" y="-55"/>
      <point x="280" y="-112"/>
      <point x="280" y="-134" type="qcurve"/>
      <point x="280" y="-156"/>
      <point x="301" y="-176"/>
      <point x="325" y="-177" type="qcurve"/>
      <point x="401" y="-181" type="line"/>
      <point x="395" y="-240" type="line"/>
      <point x="301" y="-235" type="line"/>
      <point x="253" y="-232"/>
      <point x="209" y="-197"/>
    </contour>
    <contour>
      <point x="307" y="598" type="qcurve"/>
      <point x="228" y="598"/>
      <point x="145" y="460"/>
      <point x="145" y="327" type="qcurve"/>
      <point x="145" y="194"/>
      <point x="228" y="57"/>
      <point x="307" y="57" type="qcurve"/>
      <point x="386" y="57"/>
      <point x="469" y="194"/>
      <point x="469" y="327" type="qcurve"/>
      <point x="469" y="460"/>
      <point x="386" y="598"/>
    </contour>
  </outline>
</glyph>
<glyph name="dotlessj" format="2">
  <advance width="614"/>
  <unicode hex="0237"/>
  <outline>
    <contour>
      <point x="418" y="465" type="line"/>
      <point x="418" y="-49" type="line"/>
      <point x="418" y="-142"/>
      <point x="335" y="-224"/>
      <point x="234" y="-230" type="qcurve"/>
      <point x="103" y="-238" type="line"/>
      <point x="100" y="-164" type="line"/>
      <point x="228" y="-155" type="line"/>
      <point x="285" y="-150"/>
      <point x="332" y="-103"/>
      <point x="332" y="-50" type="qcurve"/>
      <point x="332" y="393" type="line"/>
      <point x="119" y="393" type="line"/>
      <point x="119" y="465" type="line"/>
    </contour>
  </outline>
</glyph>
<glyph name="ringhalfleft" format="2">
  <advance width="614"/>
  <unicode hex="02BF"/>
  <outline>
    <contour>
      <point x="154" y="521" type="qcurve"/>
      <point x="154" y="618"/>
      <point x="291" y="725"/>
      <point x="418" y="725" type="qcurve"/>
      <point x="418" y="651" type="line"/>
      <point x="328" y="651"/>
      <point x="242" y="588"/>
      <point x="242" y="521" type="qcurve"/>
      <point x="242" y="452"/>
      <point x="327" y="389"/>
      <point x="418" y="389" type="qcurve"/>
      <point x="418" y="315" type="line"/>
      <point x="290" y="315"/>
      <point x="154" y="422"/>
    </contour>
  </outline>
</glyph>
<glyph name="gravecmb" format="2">
  <unicode hex="0300"/>
  <outline>
    <contour>
      <point x="-122" y="744" type="line"/>
      <point x="89" y="586" type="line"/>
      <point x="56" y="541" type="line"/>
      <point x="-164" y="686" type="line"/>
    </contour>
  </outline>
</glyph>
<glyph name="circumflexcmb" format="2">
  <unicode hex="0302"/>
  <outline>
    <contour>
      <point x="-149" y="541" type="line"/>
      <point x="-185" y="579" type="line"/>
      <point x="-22" y="746" type="line"/>
      <point x="22" y="746" type="line"/>
      <point x="185" y="579" type="line"/>
      <point x="149" y="541" type="line"/>
      <point x="0" y="673" type="line"/>
    </contour>
  </outline>
</glyph>
<glyph name="tildecmb" format="2">
  <unicode hex="0303"/>
  <outline>
    <contour>
      <point x="82" y="541" type="qcurve"/>
      <point x="62" y="541"/>
      <point x="16" y="573"/>
      <point x="-20" y="611" type="qcurve"/>
      <point x="-51" y="644"/>
      <point x="-74" y="664"/>
      <point x="-83" y="664" type="qcurve"/>
      <point x="-96" y="664"/>
      <point x="-122" y="612"/>
      <point x="-148" y="539" type="qcurve"/>
      <point x="-203" y="559" type="line"/>
      <point x="-170" y="656"/>
      <point x="-120" y="734"/>
      <point x="-85" y="734" type="qcurve"/>
      <point x="-65" y="734"/>
      <point x="-19" y="702"/>
      <point x="17" y="664" type="qcurve"/>
      <point x="48" y="631"/>
      <point x="71" y="612"/>
      <point x="80" y="612" type="qcurve"/>
      <point x="93" y="612"/>
      <point x="120" y="665"/>
      <point x="145" y="736" type="qcurve"/>
      <point x="200" y="716" type="line"/>
      <point x="167" y="619"/>
      <point x="117" y="541"/>
    </contour>
  </outline>
</glyph>
<glyph name="macroncmb" format="2">
  <unicode hex="0304"/>
  <outline>
    <contour>
      <point x="166" y="581" type="line"/>
      <point x="-166" y="581" type="line"/>
      <point x="-166" y="646" type="line"/>
      <point x="166" y="646" type="line"/>
    </contour>
  </outline>
</glyph>
<glyph name="brevecmb" format="2">
  <unicode hex="0306"/>
  <outline>
    <contour>
      <point x="0" y="605" type="qcurve"/>
      <point x="45" y="605"/>
      <point x="106" y="668"/>
      <point x="130" y="738" type="qcurve"/>
      <point x="185" y="720" type="line"/>
      <point x="160" y="627"/>
      <point x="71" y="541"/>
      <point x="0" y="541" type="qcurve"/>
      <point x="-71" y="541"/>
      <point x="-160" y="627"/>
      <point x="-185" y="720" type="qcurve"/>
      <point x="-130" y="738" type="line"/>
      <point x="-105" y="667"/>
      <point x="-45" y="605"/>
    </contour>
  </outline>
</glyph>
<glyph name="dieresiscmb" format="2">
  <unicode hex="0308"/>
  <outline>
    <contour>
      <point x="-58" y="617" type="qcurve"/>
      <point x="-58" y="591"/>
      <point x="-90" y="561"/>
      <point x="-118" y="561" type="qcurve"/>
      <point x="-145" y="561"/>
      <point x="-176" y="590"/>
      <point x="-176" y="617" type="qcurve"/>
      <point x="-176" y="643"/>
      <point x="-144" y="674"/>
      <point x="-117" y="674" type="qcurve"/>
      <point x="-88" y="674"/>
      <point x="-58" y="645"/>
    </contour>
    <contour>
      <point x="176" y="617" type="qcurve"/>
      <point x="176" y="591"/>
      <point x="144" y="561"/>
      <point x="116" y="561" type="qcurve"/>
      <point x="89" y="561"/>
      <point x="59" y="590"/>
      <point x="59" y="617" type="qcurve"/>
      <point x="59" y="643"/>
      <point x="90" y="674"/>
      <point x="117" y="674" type="qcurve"/>
      <point x="146" y="674"/>
      <point x="176" y="645"/>
    </contour>
  </outline>
</glyph>
<glyph name="hookcmb" format="2">
  <unicode hex="0309"/>
  <outline>
    <contour>
      <point x="108" y="656" type="qcurve"/>
      <point x="108" y="611"/>
      <point x="5" y="550"/>
      <point x="-92" y="541" type="qcurve"/>
      <point x="-111" y="581" type="line"/>
      <point x="-111" y="583" type="line"/>
      <point x="-39" y="593"/>
      <point x="30" y="625"/>
      <point x="30" y="649" type="qcurve"/>
      <point x="30" y="672"/>
      <point x="-39" y="701"/>
      <point x="-116" y="713" type="qcurve"/>
      <point x="-116" y="716" type="line"/>
      <point x="-78" y="762" type="line"/>
      <point x="21" y="748"/>
      <point x="108" y="700"/>
    </contour>
  </outline>
</glyph>
<glyph name="hungarumlautcmb" format="2">
  <unicode hex="030B"/>
  <outline>
    <contour>
      <point x="-129" y="541" type="line"/>
      <point x="-171" y="574" type="line"/>
      <point x="-70" y="739" type="line"/>
      <point x="-5" y="698" type="line"/>
    </contour>
    <contour>
      <point x="99" y="541" type="line"/>
      <point x="57" y="574" type="line"/>
      <point x="158" y="739" type="line"/>
      <point x="223" y="698" type="line"/>
    </contour>
  </outline>
</glyph>
<glyph name="caroncmb" format="2">
  <unicode hex="030C"/>
  <outline>
    <contour>
      <point x="149" y="746" type="line"/>
      <point x="185" y="708" type="line"/>
      <point x="22" y="541" type="line"/>
      <point x="-22" y="541" type="line"/>
      <point x="-185" y="708" type="line"/>
      <point x="-149" y="746" type="line"/>
      <point x="0" y="614" type="line"/>
    </contour>
  </outline>
</glyph>
<glyph name="cedillacmb" format="2">
  <unicode hex="0327"/>
  <outline>
    <contour>
      <point x="-59" y="-96" type="line"/>
      <point x="-18" y="21" type="line"/>
      <point x="31" y="21" type="line"/>
      <point x="5" y="-59" type="line"/>
      <point x="86" y="-67"/>
      <point x="156" y="-107"/>
      <point x="156" y="-148" type="qcurve"/>
      <point x="156" y="-187"/>
      <point x="108" y="-229"/>
      <point x="55" y="-242" type="qcurve"/>
      <point x="26" y="-250"/>
      <point x="-49" y="-261"/>
      <point x="-97" y="-265" type="qcurve"/>
      <point x="-113" y="-210" type="line"/>
      <point x="-5" y="-201"/>
      <point x="87" y="-175"/>
      <point x="87" y="-150" type="qcurve"/>
      <point x="87" y="-127"/>
      <point x="23" y="-108"/>
      <point x="-53" y="-106" type="qcurve"/>
    </contour>
  </outline>
</glyph>
<glyph name="brevebelowcmb" format="2">
  <unicode hex="032E"/>
  <outline>
    <contour>
      <point x="0" y="-209" type="qcurve"/>
      <point x="45" y="-209"/>
      <point x="106" y="-146"/>
      <point x="130" y="-76" type="qcurve"/>
      <point x="185" y="-94" type="line"/>
      <point x="160" y="-186"/>
      <point x="71" y="-272"/>
      <point x="0" y="-272" type="qcurve"/>
      <point x="-71" y="-272"/>
      <point x="-160" y="-186"/>
      <point x="-185" y="-94" type="qcurve"/>
      <point x="-130" y="-76" type="line"/>
      <point x="-105" y="-147"/>
      <point x="-44" y="-209"/>
    </contour>
  </outline>
</glyph>
<glyph name="hcedilla" format="2">
  <advance width="614"/>
  <unicode hex="1E29"/>
  <outline>
    <contour>
      <point x="95" y="710" type="line"/>
      <point x="181" y="710" type="line"/>
      <point x="181" y="365" type="line"/>
      <point x="244" y="424"/>
      <point x="333" y="472"/>
      <point x="381" y="472" type="qcurve"/>
      <point x="449" y="472"/>
      <point x="522" y="395"/>
      <point x="522" y="324" type="qcurve"/>
      <point x="522" y="0" type="line"/>
      <point x="436" y="0" type="line"/>
      <point x="436" y="309" type="line"/>
      <point x="436" y="353"/>
      <point x="398" y="394"/>
      <point x="357" y="394" type="qcurve"/>
      <point x="322" y="394"/>
      <point x="245" y="346"/>
      <point x="181" y="286" type="qcurve"/>
      <point x="181" y="0" type="line"/>
      <point x="163" y="0" type="line"/>
      <point x="143" y="-59" type="line"/>
      <point x="225" y="-67"/>
      <point x="295" y="-107"/>
      <point x="295" y="-148" type="qcurve"/>
      <point x="295" y="-187"/>
      <point x="247" y="-229"/>
      <point x="193" y="-242" type="qcurve"/>
      <point x="165" y="-250"/>
      <point x="89" y="-261"/>
      <point x="41" y="-265" type="qcurve"/>
      <point x="25" y="-210" type="line"/>
      <point x="133" y="-201"/>
      <point x="225" y="-176"/>
      <point x="225" y="-150" type="qcurve"/>
      <point x="225" y="-127"/>
      <point x="161" y="-108"/>
      <point x="86" y="-106" type="qcurve"/>
      <point x="80" y="-96" type="line"/>
      <point x="114" y="0" type="line"/>
      <point x="95" y="0" type="line"/>
    </contour>
  </outline>
</glyph>
<glyph name="uni1E9E" format="2">
  <advance width="614"/>
  <unicode hex="1E9E"/>
  <outline>
    <contour>
      <point x="485" y="143" type="qcurve"/>
      <point x="485" y="187"/>
      <point x="420" y="259"/>
      <point x="326" y="324" type="qcurve"/>
      <point x="326" y="350" type="line"/>
      <point x="448" y="550" type="line"/>
      <point x="406" y="575"/>
      <point x="341" y="598"/>
      <point x="311" y="598" type="qcurve"/>
      <point x="243" y="598"/>
      <point x="174" y="515"/>
      <point x="174" y="433" type="qcurve"/>
      <point x="174" y="0" type="line"/>
      <point x="88" y="0" type="line"/>
      <point x="88" y="430" type="line"/>
      <point x="88" y="543"/>
      <point x="204" y="670"/>
      <point x="306" y="670" type="qcurve"/>
      <point x="360" y="670"/>
      <point x="467" y="630"/>
      <point x="538" y="583" type="qcurve"/>
      <point x="538" y="561" type="line"/>
      <point x="411" y="353" type="line"/>
      <point x="501" y="291"/>
      <point x="570" y="203"/>
      <point x="570" y="140" type="qcurve"/>
      <point x="570" y="74"/>
      <point x="482" y="-6"/>
      <point x="408" y="-6" type="qcurve"/>
      <point x="378" y="-6"/>
      <point x="335" y="-3"/>
      <point x="317" y="1" type="qcurve"/>
      <point x="324" y="72" type="line"/>
      <point x="345" y="68"/>
      <point x="380" y="65"/>
      <point x="399" y="65" type="qcurve"/>
      <point x="440" y="65"/>
      <point x="485" y="106"/>
    </contour>
  </outline>
</glyph>
<glyph name="endash" format="2">
  <advance width="614"/>
  <unicode hex="2013"/>
  <outline>
    <contour>
      <point x="80" y="286" type="line"/>
      <point x="80" y="369" type="line"/>
      <point x="534" y="369" type="line"/>
      <point x="534" y="286" type="line"/>
    </contour>
  </outline>
</glyph>
<glyph name="quotedblright" format="2">
  <advance width="614"/>
  <unicode hex="201D"/>
  <outline>
    <contour>
      <point x="381" y="425" type="qcurve"/>
      <point x="305" y="425" type="line"/>
      <point x="305" y="427" type="line"/>
      <point x="368" y="524"/>
      <point x="407" y="621"/>
      <point x="418" y="710" type="qcurve"/>
      <point x="540" y="710" type="line"/>
      <point x="524" y="607"/>
      <point x="464" y="499"/>
    </contour>
    <contour>
      <point x="131" y="425" type="qcurve"/>
      <point x="54" y="425" type="line"/>
      <point x="54" y="427" type="line"/>
      <point x="116" y="521"/>
      <point x="156" y="619"/>
      <point x="167" y="710" type="qcurve"/>
      <point x="290" y="710" type="line"/>
      <point x="274" y="607"/>
      <point x="214" y="499"/>
    </contour>
  </outline>
</glyph>
<glyph name="dagger" format="2">
  <advance width="614"/>
  <unicode hex="2020"/>
  <outline>
    <contour>
      <point x="539" y="522" type="qcurve"/>
      <point x="539" y="430" type="line"/>
      <point x="519" y="430"/>
      <point x="472" y="436"/>
      <point x="424" y="445" type="qcurve"/>
      <point x="386" y="452"/>
      <point x="348" y="458"/>
      <point x="332" y="459" type="qcurve"/>
      <point x="333" y="420"/>
      <point x="338" y="330"/>
      <point x="345" y="239" type="qcurve"/>
      <point x="353" y="140"/>
      <point x="358" y="42"/>
      <point x="358" y="0" type="qcurve"/>
      <point x="256" y="0" type="line"/>
      <point x="256" y="42"/>
      <point x="261" y="140"/>
      <point x="270" y="238" type="qcurve"/>
      <point x="278" y="329"/>
      <point x="283" y="420"/>
      <point x="284" y="459" type="qcurve"/>
      <point x="267" y="458"/>
      <point x="227" y="452"/>
      <point x="187" y="444" type="qcurve"/>
      <point x="139" y="435"/>
      <point x="93" y="430"/>
      <point x="75" y="430" type="qcurve"/>
      <point x="75" y="522" type="line"/>
      <point x="94" y="522"/>
      <point x="139" y="517"/>
      <point x="186" y="509" type="qcurve"/>
      <point x="226" y="502"/>
      <point x="266" y="497"/>
      <point x="283" y="496" type="qcurve"/>
      <point x="282" y="513"/>
      <point x="277" y="553"/>
      <point x="270" y="593" type="qcurve"/>
      <point x="261" y="642"/>
      <point x="256" y="690"/>
      <point x="256" y="710" type="qcurve"/>
      <point x="358" y="710" type="line"/>
      <point x="358" y="690"/>
      <point x="353" y="643"/>
      <point x="345" y="596" type="qcurve"/>
      <point x="339" y="555"/>
      <point x="334" y="513"/>
      <point x="333" y="496" type="qcurve"/>
      <point x="348" y="497"/>
      <point x="385" y="502"/>
      <point x="422" y="508" type="qcurve"/>
      <point x="470" y="517"/>
      <point x="519" y="522"/>
    </contour>
  </outline>
</glyph>
<glyph name="daggerdbl" format="2">
  <advance width="614"/>
  <unicode hex="2021"/>
  <outline>
    <contour>
      <point x="524" y="282" type="qcurve"/>
      <point x="524" y="190" type="line"/>
      <point x="505" y="190"/>
      <point x="459" y="196"/>
      <point x="414" y="205" type="qcurve"/>
      <point x="380" y="212"/>
      <point x="346" y="218"/>
      <point x="332" y="219" type="qcurve"/>
      <point x="333" y="201"/>
      <point x="337" y="160"/>
      <point x="343" y="118" type="qcurve"/>
      <point x="351" y="70"/>
      <point x="355" y="21"/>
      <point x="355" y="0" type="qcurve"/>
      <point x="259" y="0" type="line"/>
      <point x="259" y="21"/>
      <point x="264" y="69"/>
      <point x="272" y="118" type="qcurve"/>
      <point x="278" y="159"/>
      <point x="283" y="201"/>
      <point x="284" y="219" type="qcurve"/>
      <point x="269" y="218"/>
      <point x="235" y="212"/>
      <point x="200" y="205" type="qcurve"/>
      <point x="156" y="196"/>
      <point x="111" y="190"/>
      <point x="91" y="190" type="qcurve"/>
      <point x="91" y="282" type="line"/>
      <point x="110" y="282"/>
      <point x="155" y="277"/>
      <point x="199" y="269" type="qcurve"/>
      <point x="234" y="262"/>
      <point x="269" y="257"/>
      <point x="284" y="256" type="qcurve"/>
      <point x="284" y="459" type="line"/>
      <point x="268" y="458"/>
      <point x="229" y="452"/>
      <point x="191" y="445" type="qcurve"/>
      <point x="143" y="436"/>
      <point x="95" y="430"/>
      <point x="75" y="430" type="qcurve"/>
      <point x="75" y="522" type="line"/>
      <point x="96" y="522"/>
      <point x="144" y="517"/>
      <point x="191" y="509" type="qcurve"/>
      <point x="229" y="502"/>
      <point x="267" y="497"/>
      <point x="283" y="496" type="qcurve"/>
      <point x="282" y="513"/>
      <point x="277" y="553"/>
      <point x="270" y="593" type="qcurve"/>
      <point x="261" y="641"/>
      <point x="256" y="689"/>
      <point x="256" y="710" type="qcurve"/>
      <point x="358" y="710" type="line"/>
      <point x="358" y="690"/>
      <point x="353" y="643"/>
      <point x="345" y="595" type="qcurve"/>
      <point x="339" y="554"/>
      <point x="334" y="513"/>
      <point x="333" y="496" type="qcurve"/>
      <point x="349" y="497"/>
      <point x="386" y="502"/>
      <point x="423" y="509" type="qcurve"/>
      <point x="472" y="517"/>
      <point x="519" y="522"/>
      <point x="539" y="522" type="qcurve"/>
      <point x="539" y="430" type="line"/>
      <point x="520" y="430"/>
      <point x="474" y="436"/>
      <point x="427" y="445" type="qcurve"/>
      <point x="388" y="452"/>
      <point x="349" y="458"/>
      <point x="332" y="459" type="qcurve"/>
      <point x="332" y="256" type="line"/>
      <point x="347" y="257"/>
      <point x="381" y="262"/>
      <point x="415" y="268" type="qcurve"/>
      <point x="460" y="277"/>
      <point x="505" y="282"/>
    </contour>
  </outline>
</glyph>
<glyph name="bullet" format="2">
  <advance width="614"/>
  <unicode hex="2022"/>
  <outline>
    <contour>
      <point x="173" y="333" type="qcurve"/>
      <point x="173" y="394"/>
      <point x="245" y="465"/>
      <point x="308" y="465" type="qcurve"/>
      <point x="373" y="465"/>
      <point x="442" y="397"/>
      <point x="442" y="333" type="qcurve"/>
      <point x="442" y="273"/>
      <point x="371" y="203"/>
      <point x="308" y="203" type="qcurve"/>
      <point x="243" y="203"/>
      <point x="173" y="270"/>
    </contour>
  </outline>
</glyph>
<glyph name="twodotleader" format="2">
  <advance width="614"/>
  <unicode hex="2025"/>
  <outline>
    <contour>
      <point x="227" y="66" type="qcurve"/>
      <point x="227" y="28"/>
      <point x="188" y="-15"/>
      <point x="153" y="-15" type="qcurve"/>
      <point x="117" y="-15"/>
      <point x="80" y="26"/>
      <point x="80" y="65" type="qcurve"/>
      <point x="80" y="104"/>
      <point x="118" y="147"/>
      <point x="153" y="147" type="qcurve"/>
      <point x="190" y="147"/>
      <point x="227" y="106"/>
    </contour>
    <contour>
      <point x="534" y="66" type="qcurve"/>
      <point x="534" y="27"/>
      <point x="496" y="-15"/>
      <point x="461" y="-15" type="qcurve"/>
      <point x="425" y="-15"/>
      <point x="387" y="26"/>
      <point x="387" y="65" type="qcurve"/>
      <point x="387" y="104"/>
      <point x="426" y="147"/>
      <point x="461" y="147" type="qcurve"/>
      <point x="497" y="147"/>
      <point x="534" y="106"/>
    </contour>
  </outline>
</glyph>
<glyph name="naira" format="2">
  <advance width="614"/>
  <unicode hex="20A6"/>
  <outline>
    <contour>
      <point x="178" y="223" type="line"/>
      <point x="180" y="0" type="line"/>
      <point x="106" y="0" type="line"/>
      <point x="106" y="220" type="line"/>
      <point x="15" y="220" type="line"/>
      <point x="15" y="277" type="line"/>
      <point x="106" y="277" type="line"/>
      <point x="106" y="384" type="line"/>
      <point x="15" y="384" type="line"/>
      <point x="15" y="441" type="line"/>
      <point x="106" y="441" type="line"/>
      <point x="106" y="655" type="line"/>
      <point x="230" y="655" type="line"/>
      <point x="303" y="438" type="line"/>
      <point x="436" y="438" type="line"/>
      <point x="434" y="655" type="line"/>
      <point x="507" y="655" type="line"/>
      <point x="507" y="441" type="line"/>
      <point x="599" y="441" type="line"/>
      <point x="599" y="384" type="line"/>
      <point x="507" y="384" type="line"/>
      <point x="507" y="277" type="line"/>
      <point x="599" y="277" type="line"/>
      <point x="599" y="220" type="line"/>
      <point x="507" y="220" type="line"/>
      <point x="507" y="0" type="line"/>
      <point x="386" y="0" type="line"/>
      <point x="310" y="223" type="line"/>
    </contour>
    <contour>
      <point x="180" y="607" type="line"/>
      <point x="174" y="607" type="line"/>
      <point x="177" y="266" type="line"/>
      <point x="296" y="266" type="line"/>
    </contour>
    <contour>
      <point x="437" y="395" type="line"/>
      <point x="318" y="395" type="line"/>
      <point x="433" y="55" type="line"/>
      <point x="440" y="55" type="line"/>
    </contour>
  </outline>
</glyph>
<glyph name="won" format="2">
  <advance width="614"/>
  <unicode hex="20A9"/>
  <outline>
    <contour>
      <point x="312" y="430" type="line"/>
      <point x="301" y="430" type="line"/>
      <point x="226" y="0" type="line"/>
      <point x="122" y="0" type="line"/>
      <point x="99" y="308" type="line"/>
      <point x="14" y="308" type="line"/>
      <point x="14" y="367" type="line"/>
      <point x="95" y="367" type="line"/>
      <point x="73" y="655" type="line"/>
      <point x="128" y="655" type="line"/>
      <point x="149" y="362" type="line"/>
      <point x="241" y="362" type="line"/>
      <point x="265" y="497" type="line"/>
      <point x="349" y="497" type="line"/>
      <point x="373" y="362" type="line"/>
      <point x="466" y="362" type="line"/>
      <point x="487" y="655" type="line"/>
      <point x="541" y="655" type="line"/>
      <point x="519" y="367" type="line"/>
      <point x="600" y="367" type="line"/>
      <point x="600" y="308" type="line"/>
      <point x="515" y="308" type="line"/>
      <point x="491" y="0" type="line"/>
      <point x="388" y="0" type="line"/>
    </contour>
    <contour>
      <point x="425" y="69" type="line"/>
      <point x="445" y="69" type="line"/>
      <point x="463" y="315" type="line"/>
      <point x="381" y="315" type="line"/>
    </contour>
    <contour>
      <point x="152" y="315" type="line"/>
      <point x="169" y="69" type="line"/>
      <point x="189" y="69" type="line"/>
      <point x="233" y="315" type="line"/>
    </contour>
  </outline>
</glyph>
<glyph name="dong" format="2">
  <advance width="614"/>
  <unicode hex="20AB"/>
  <outline>
    <contour>
      <point x="261" y="-9" type="qcurve"/>
      <point x="174" y="-9"/>
      <point x="59" y="110"/>
      <point x="59" y="204" type="qcurve"/>
      <point x="59" y="298"/>
      <point x="189" y="422"/>
      <point x="288" y="422" type="qcurve"/>
      <point x="327" y="422"/>
      <point x="394" y="396"/>
      <point x="429" y="368" type="qcurve"/>
      <point x="429" y="505" type="line"/>
      <point x="251" y="505" type="line"/>
      <point x="251" y="562" type="line"/>
      <point x="429" y="562" type="line"/>
      <point x="429" y="655" type="line"/>
      <point x="514" y="655" type="line"/>
      <point x="514" y="562" type="line"/>
      <point x="598" y="562" type="line"/>
      <point x="598" y="505" type="line"/>
      <point x="514" y="505" type="line"/>
      <point x="514" y="0" type="line"/>
      <point x="441" y="0" type="line"/>
      <point x="433" y="76" type="line"/>
      <point x="390" y="31"/>
      <point x="310" y="-9"/>
    </contour>
    <contour>
      <point x="298" y="356" type="qcurve"/>
      <point x="230" y="356"/>
      <point x="147" y="273"/>
      <point x="147" y="207" type="qcurve"/>
      <point x="147" y="144"/>
      <point x="225" y="62"/>
      <point x="283" y="62" type="qcurve"/>
      <point x="320" y="62"/>
      <point x="387" y="100"/>
      <point x="429" y="143" type="qcurve"/>
      <point x="429" y="296" type="line"/>
      <point x="395" y="326"/>
      <point x="330" y="356"/>
    </contour>
    <contour>
      <point x="506" y="-152" type="line"/>
      <point x="85" y="-152" type="line"/>
      <point x="85" y="-92" type="line"/>
      <point x="506" y="-92" type="line"/>
    </contour>
  </outline>
</glyph>
<glyph name="Euro" format="2">
  <advance width="614"/>
  <unicode hex="20AC"/>
  <outline>
    <contour>
      <point x="136" y="224" type="qcurve"/>
      <point x="48" y="224" type="line"/>
      <point x="48" y="282" type="line"/>
      <point x="135" y="282" type="line"/>
      <point x="135" y="373" type="line"/>
      <point x="48" y="373" type="line"/>
      <point x="48" y="431" type="line"/>
      <point x="137" y="431" type="line"/>
      <point x="146" y="542"/>
      <point x="281" y="669"/>
      <point x="389" y="669" type="qcurve"/>
      <point x="432" y="669"/>
      <point x="513" y="649"/>
      <point x="566" y="625" type="qcurve"/>
      <point x="544" y="554" type="line"/>
      <point x="494" y="577"/>
      <point x="422" y="597"/>
      <point x="386" y="597" type="qcurve"/>
      <point x="311" y="597"/>
      <point x="230" y="513"/>
      <point x="224" y="429" type="qcurve"/>
      <point x="437" y="429" type="line"/>
      <point x="437" y="373" type="line"/>
      <point x="223" y="373" type="line"/>
      <point x="223" y="282" type="line"/>
      <point x="437" y="282" type="line"/>
      <point x="437" y="226" type="line"/>
      <point x="224" y="226" type="line"/>
      <point x="229" y="142"/>
      <point x="308" y="57"/>
      <point x="382" y="57" type="qcurve"/>
      <point x="422" y="57"/>
      <point x="499" y="78"/>
      <point x="553" y="103" type="qcurve"/>
      <point x="574" y="32" type="line"/>
      <point x="521" y="7"/>
      <point x="433" y="-15"/>
      <point x="383" y="-15" type="qcurve"/>
      <point x="271" y="-15"/>
      <point x="144" y="108"/>
    </contour>
  </outline>
</glyph>
<glyph name="peso" format="2">
  <advance width="614"/>
  <unicode hex="20B1"/>
  <outline>
    <contour>
      <point x="106" y="417" type="line"/>
      <point x="16" y="417" type="line"/>
      <point x="16" y="474" type="line"/>
      <point x="106" y="474" type="line"/>
      <point x="106" y="655" type="line"/>
      <point x="281" y="655" type="line"/>
      <point x="384" y="655"/>
      <point x="508" y="560"/>
      <point x="517" y="474" type="qcurve"/>
      <point x="601" y="474" type="line"/>
      <point x="601" y="417" type="line"/>
      <point x="518" y="417" type="line"/>
      <point x="508" y="329"/>
      <point x="374" y="229"/>
      <point x="266" y="229" type="qcurve"/>
      <point x="193" y="229" type="line"/>
      <point x="193" y="0" type="line"/>
      <point x="106" y="0" type="line"/>
    </contour>
    <contour>
      <point x="281" y="583" type="qcurve"/>
      <point x="193" y="583" type="line"/>
      <point x="193" y="466" type="line"/>
      <point x="430" y="466" type="line"/>
      <point x="423" y="523"/>
      <point x="346" y="583"/>
    </contour>
    <contour>
      <point x="193" y="300" type="line"/>
      <point x="274" y="300" type="line"/>
      <point x="343" y="300"/>
      <point x="425" y="365"/>
      <point x="430" y="424" type="qcurve"/>
      <point x="193" y="424" type="line"/>
    </contour>
  </outline>
</glyph>
<glyph name="uni20BD" format="2">
  <advance width="614"/>
  <unicode hex="20BD"/>
  <outline>
    <contour>
      <point x="135" y="128" type="line"/>
      <point x="36" y="128" type="line"/>
      <point x="36" y="185" type="line"/>
      <point x="135" y="185" type="line"/>
      <point x="135" y="284" type="line"/>
      <point x="36" y="284" type="line"/>
      <point x="36" y="341" type="line"/>
      <point x="135" y="341" type="line"/>
      <point x="135" y="655" type="line"/>
      <point x="365" y="655" type="line"/>
      <point x="475" y="655"/>
      <point x="590" y="559"/>
      <point x="590" y="467" type="qcurve"/>
      <point x="590" y="375"/>
      <point x="468" y="284"/>
      <point x="344" y="284" type="qcurve"/>
      <point x="221" y="284" type="line"/>
      <point x="221" y="185" type="line"/>
      <point x="446" y="185" type="line"/>
      <point x="446" y="128" type="line"/>
      <point x="221" y="128" type="line"/>
      <point x="221" y="0" type="line"/>
      <point x="135" y="0" type="line"/>
    </contour>
    <contour>
      <point x="504" y="463" type="qcurve"/>
      <point x="504" y="523"/>
      <point x="430" y="583"/>
      <point x="357" y="583" type="qcurve"/>
      <point x="221" y="583" type="line"/>
      <point x="221" y="341" type="line"/>
      <point x="344" y="341" type="line"/>
      <point x="422" y="341"/>
      <point x="504" y="404"/>
    </contour>
  </outline>
</glyph>
<glyph name="servicemark" format="2">
  <advance width="614"/>
  <unicode hex="2120"/>
  <outline>
    <contour>
      <point x="142" y="441" type="qcurve"/>
      <point x="169" y="441"/>
      <point x="198" y="464"/>
      <point x="198" y="485" type="qcurve"/>
      <point x="198" y="502"/>
      <point x="177" y="525"/>
      <point x="155" y="533" type="qcurve"/>
      <point x="121" y="545" type="line"/>
      <point x="81" y="559"/>
      <point x="44" y="603"/>
      <point x="44" y="637" type="qcurve"/>
      <point x="44" y="672"/>
      <point x="99" y="717"/>
      <point x="145" y="717" type="qcurve"/>
      <point x="167" y="717"/>
      <point x="209" y="710"/>
      <point x="239" y="701" type="qcurve"/>
      <point x="229" y="656" type="line"/>
      <point x="204" y="665"/>
      <point x="162" y="673"/>
      <point x="145" y="673" type="qcurve"/>
      <point x="120" y="673"/>
      <point x="93" y="654"/>
      <point x="93" y="638" type="qcurve"/>
      <point x="93" y="620"/>
      <point x="112" y="598"/>
      <point x="135" y="590" type="qcurve"/>
      <point x="170" y="579" type="line"/>
      <point x="213" y="564"/>
      <point x="248" y="522"/>
      <point x="248" y="486" type="qcurve"/>
      <point x="248" y="444"/>
      <point x="192" y="397"/>
      <point x="142" y="397" type="qcurve"/>
      <point x="115" y="397"/>
      <point x="62" y="409"/>
      <point x="32" y="421" type="qcurve"/>
      <point x="45" y="466" type="line"/>
      <point x="73" y="454"/>
      <point x="125" y="441"/>
    </contour>
    <contour>
      <point x="493" y="710" type="line"/>
      <point x="554" y="710" type="line"/>
      <point x="565" y="404" type="line"/>
      <point x="517" y="404" type="line"/>
      <point x="514" y="667" type="line"/>
      <point x="446" y="500" type="line"/>
      <point x="425" y="500" type="line"/>
      <point x="356" y="664" type="line"/>
      <point x="353" y="404" type="line"/>
      <point x="304" y="404" type="line"/>
      <point x="316" y="710" type="line"/>
      <point x="377" y="710" type="line"/>
      <point x="436" y="573" type="line"/>
    </contour>
  </outline>
</glyph>
<glyph name="trademark" format="2">
  <advance width="614"/>
  <unicode hex="2122"/>
  <outline>
    <contour>
      <point x="125" y="662" type="line"/>
      <point x="37" y="662" type="line"/>
      <point x="37" y="710" type="line"/>
      <point x="265" y="710" type="line"/>
      <point x="265" y="662" type="line"/>
      <point x="179" y="662" type="line"/>
      <point x="179" y="404" type="line"/>
      <point x="125" y="404" type="line"/>
    </contour>
    <contour>
      <point x="493" y="710" type="line"/>
      <point x="554" y="710" type="line"/>
      <point x="565" y="404" type="line"/>
      <point x="517" y="404" type="line"/>
      <point x="514" y="667" type="line"/>
      <point x="446" y="500" type="line"/>
      <point x="425" y="500" type="line"/>
      <point x="356" y="664" type="line"/>
      <point x="353" y="404" type="line"/>
      <point x="304" y="404" type="line"/>
      <point x="316" y="710" type="line"/>
      <point x="377" y="710" type="line"/>
      <point x="436" y="573" type="line"/>
    </contour>
  </outline>
</glyph>
<glyph name="minus" format="2">
  <advance width="614"/>
  <unicode hex="2212"/>
  <outline>
    <contour>
      <point x="544" y="292" type="line"/>
      <point x="70" y="292" type="line"/>
      <point x="70" y="363" type="line"/>
      <point x="544" y="363" type="line"/>
    </contour>
  </outline>
</glyph>
<glyph name="approxequal" format="2">
  <advance width="614"/>
  <unicode hex="2248"/>
  <outline>
    <contour>
      <point x="507" y="571" type="qcurve"/>
      <point x="572" y="547" type="line"/>
      <point x="533" y="439"/>
      <point x="471" y="354"/>
      <point x="427" y="354" type="qcurve"/>
      <point x="405" y="354"/>
      <point x="347" y="385"/>
      <point x="293" y="426" type="qcurve"/>
      <point x="242" y="465"/>
      <point x="202" y="489"/>
      <point x="186" y="489" type="qcurve"/>
      <point x="172" y="489"/>
      <point x="147" y="450"/>
      <point x="106" y="353" type="qcurve"/>
      <point x="41" y="377" type="line"/>
      <point x="81" y="484"/>
      <point x="143" y="569"/>
      <point x="187" y="569" type="qcurve"/>
      <point x="209" y="569"/>
      <point x="268" y="537"/>
      <point x="320" y="497" type="qcurve"/>
      <point x="372" y="458"/>
      <point x="413" y="434"/>
      <point x="428" y="434" type="qcurve"/>
      <point x="442" y="434"/>
      <point x="466" y="473"/>
    </contour>
    <contour>
      <point x="507" y="306" type="qcurve"/>
      <point x="572" y="282" type="line"/>
      <point x="533" y="174"/>
      <point x="471" y="89"/>
      <point x="427" y="89" type="qcurve"/>
      <point x="405" y="89"/>
      <point x="347" y="120"/>
      <point x="293" y="161" type="qcurve"/>
      <point x="242" y="200"/>
      <point x="202" y="224"/>
      <point x="186" y="224" type="qcurve"/>
      <point x="172" y="224"/>
      <point x="147" y="185"/>
      <point x="106" y="88" type="qcurve"/>
      <point x="41" y="112" type="line"/>
      <point x="81" y="219"/>
      <point x="143" y="304"/>
      <point x="187" y="304" type="qcurve"/>
      <point x="209" y="304"/>
      <point x="268" y="272"/>
      <point x="320" y="232" type="qcurve"/>
      <point x="372" y="193"/>
      <point x="413" y="169"/>
      <point x="428" y="169" type="qcurve"/>
      <point x="442" y="169"/>
      <point x="466" y="208"/>
    </contour>
  </outline>
</glyph>
<glyph name="notequal" format="2">
  <advance width="614"/>
  <unicode hex="2260"/>
  <outline>
    <contour>
      <point x="204" y="194" type="line"/>
      <point x="93" y="194" type="line"/>
      <point x="93" y="266" type="line"/>
      <point x="243" y="264" type="line"/>
      <point x="283" y="336" type="line"/>
      <point x="313" y="393" type="line"/>
      <point x="93" y="390" type="line"/>
      <point x="93" y="461" type="line"/>
      <point x="348" y="461" type="line"/>
      <point x="428" y="614" type="line"/>
      <point x="502" y="614" type="line"/>
      <point x="415" y="461" type="line"/>
      <point x="521" y="461" type="line"/>
      <point x="521" y="390" type="line"/>
      <point x="376" y="392" type="line"/>
      <point x="343" y="335" type="line"/>
      <point x="306" y="263" type="line"/>
      <point x="521" y="266" type="line"/>
      <point x="521" y="194" type="line"/>
      <point x="270" y="194" type="line"/>
      <point x="196" y="50" type="line"/>
      <point x="123" y="50" type="line"/>
    </contour>
  </outline>
</glyph>
<glyph name="greaterequal" format="2">
  <advance width="614"/>
  <unicode hex="2265"/>
  <outline>
    <contour>
      <point x="522" y="398" type="line"/>
      <point x="92" y="204" type="line"/>
      <point x="92" y="284" type="line"/>
      <point x="448" y="437" type="line"/>
      <point x="92" y="590" type="line"/>
      <point x="92" y="670" type="line"/>
      <point x="522" y="476" type="line"/>
    </contour>
    <contour>
      <point x="522" y="71" type="line"/>
      <point x="522" y="0" type="line"/>
      <point x="92" y="0" type="line"/>
      <point x="92" y="71" type="line"/>
    </contour>
  </outline>
</glyph>
<glyph name="acutecmb.cap" format="2">
  <outline>
    <contour>
      <point x="-56" y="731" type="line"/>
      <point x="-85" y="778" type="line"/>
      <point x="138" y="920" type="line"/>
      <point x="176" y="859" type="line"/>
    </contour>
  </outline>
</glyph>
<glyph name="breveacute" format="2">
  <outline>
    <contour>
      <point x="-42" y="734" type="line"/>
      <point x="-69" y="781" type="line"/>
      <point x="157" y="915" type="line"/>
      <point x="191" y="852" type="line"/>
    </contour>
    <contour>
      <point x="0" y="605" type="qcurve"/>
      <point x="46" y="605"/>
      <point x="108" y="664"/>
      <point x="130" y="728" type="qcurve"/>
      <point x="185" y="710" type="line"/>
      <point x="162" y="623"/>
      <point x="72" y="541"/>
      <point x="0" y="541" type="qcurve"/>
      <point x="-72" y="541"/>
      <point x="-162" y="623"/>
      <point x="-185" y="710" type="qcurve"/>
      <point x="-130" y="728" type="line"/>
      <point x="-107" y="664"/>
      <point x="-45" y="605"/>
    </contour>
  </outline>
</glyph>
<glyph name="brevecmb.cap" format="2">
  <outline>
    <contour>
      <point x="0" y="795" type="qcurve"/>
      <point x="46" y="795"/>
      <point x="108" y="852"/>
      <point x="130" y="913" type="qcurve"/>
      <point x="185" y="896" type="line"/>
      <point x="162" y="811"/>
      <point x="72" y="731"/>
      <point x="0" y="731" type="qcurve"/>
      <point x="-72" y="731"/>
      <point x="-162" y="811"/>
      <point x="-185" y="896" type="qcurve"/>
      <point x="-130" y="913" type="line"/>
      <point x="-109" y="852"/>
      <point x="-47" y="795"/>
    </contour>
  </outline>
</glyph>
<glyph name="brevetilde.cap" format="2">
  <outline>
    <contour>
      <point x="-75" y="1085" type="qcurve"/>
      <point x="-59" y="1085"/>
      <point x="-27" y="1067"/>
      <point x="11" y="1036" type="qcurve"/>
      <point x="41" y="1013"/>
      <point x="64" y="999"/>
      <point x="73" y="999" type="qcurve"/>
      <point x="87" y="999"/>
      <point x="112" y="1040"/>
      <point x="134" y="1094" type="qcurve"/>
      <point x="188" y="1074" type="line"/>
      <point x="161" y="998"/>
      <point x="112" y="932"/>
      <point x="77" y="932" type="qcurve"/>
      <point x="61" y="932"/>
      <point x="27" y="951"/>
      <point x="-10" y="981" type="qcurve"/>
      <point x="-39" y="1004"/>
      <point x="-62" y="1018"/>
      <point x="-71" y="1018" type="qcurve"/>
      <point x="-85" y="1018"/>
      <point x="-109" y="980"/>
      <point x="-128" y="932" type="qcurve"/>
      <point x="-182" y="952" type="line"/>
      <point x="-156" y="1024"/>
      <point x="-109" y="1085"/>
    </contour>
    <contour>
      <point x="0" y="795" type="qcurve"/>
      <point x="48" y="795"/>
      <point x="111" y="846"/>
      <point x="130" y="900" type="qcurve"/>
      <point x="185" y="882" type="line"/>
      <point x="165" y="805"/>
      <point x="74" y="731"/>
      <point x="0" y="731" type="qcurve"/>
      <point x="-73" y="731"/>
      <point x="-163" y="802"/>
      <point x="-183" y="874" type="qcurve"/>
      <point x="-128" y="892" type="line"/>
      <point x="-112" y="843"/>
      <point x="-49" y="795"/>
    </contour>
  </outline>
</glyph>
<glyph name="caroncmb.cap" format="2">
  <outline>
    <contour>
      <point x="155" y="920" type="line"/>
      <point x="188" y="878" type="line"/>
      <point x="19" y="731" type="line"/>
      <point x="-19" y="731" type="line"/>
      <point x="-188" y="878" type="line"/>
      <point x="-155" y="920" type="line"/>
      <point x="0" y="803" type="line"/>
    </contour>
  </outline>
</glyph>
<glyph name="circumflexacute" format="2">
  <outline>
    <contour>
      <point x="125" y="712" type="line"/>
      <point x="95" y="755" type="line"/>
      <point x="243" y="866" type="line"/>
      <point x="283" y="810" type="line"/>
    </contour>
    <contour>
      <point x="-149" y="541" type="line"/>
      <point x="-185" y="579" type="line"/>
      <point x="-22" y="733" type="line"/>
      <point x="22" y="733" type="line"/>
      <point x="185" y="579" type="line"/>
      <point x="149" y="541" type="line"/>
      <point x="0" y="661" type="line"/>
    </contour>
  </outline>
</glyph>
<glyph name="circumflexcmb.cap" format="2">
  <outline>
    <contour>
      <point x="-155" y="732" type="line"/>
      <point x="-188" y="774" type="line"/>
      <point x="-19" y="921" type="line"/>
      <point x="19" y="921" type="line"/>
      <point x="188" y="774" type="line"/>
      <point x="155" y="732" type="line"/>
      <point x="0" y="848" type="line"/>
    </contour>
  </outline>
</glyph>
<glyph name="circumflexgrave" format="2">
  <outline>
    <contour>
      <point x="79" y="868" type="line"/>
      <point x="222" y="748" type="line"/>
      <point x="189" y="707" type="line"/>
      <point x="35" y="814" type="line"/>
    </contour>
    <contour>
      <point x="-149" y="541" type="line"/>
      <point x="-185" y="579" type="line"/>
      <point x="-22" y="733" type="line"/>
      <point x="22" y="733" type="line"/>
      <point x="185" y="579" type="line"/>
      <point x="149" y="541" type="line"/>
      <point x="0" y="661" type="line"/>
    </contour>
  </outline>
</glyph>
<glyph name="circumflexhook.cap" format="2">
  <outline>
    <contour>
      <point x="284" y="991" type="qcurve"/>
      <point x="284" y="957"/>
      <point x="194" y="910"/>
      <point x="108" y="900" type="qcurve"/>
      <point x="90" y="939" type="line"/>
      <point x="90" y="941" type="line"/>
      <point x="156" y="953"/>
      <point x="206" y="971"/>
      <point x="206" y="984" type="qcurve"/>
      <point x="206" y="999"/>
      <point x="139" y="1019"/>
      <point x="46" y="1034" type="qcurve"/>
      <point x="46" y="1037" type="line"/>
      <point x="84" y="1083" type="line"/>
      <point x="195" y="1067"/>
      <point x="284" y="1027"/>
    </contour>
    <contour>
      <point x="-155" y="732" type="line"/>
      <point x="-188" y="774" type="line"/>
      <point x="-19" y="904" type="line"/>
      <point x="19" y="904" type="line"/>
      <point x="188" y="774" type="line"/>
      <point x="155" y="732" type="line"/>
      <point x="0" y="832" type="line"/>
    </contour>
  </outline>
</glyph>
<glyph name="circumflexhook" format="2">
  <outline>
    <contour>
      <point x="295" y="818" type="qcurve"/>
      <point x="295" y="781"/>
      <point x="201" y="727"/>
      <point x="111" y="713" type="qcurve"/>
      <point x="92" y="753" type="line"/>
      <point x="92" y="755" type="line"/>
      <point x="162" y="769"/>
      <point x="217" y="794"/>
      <point x="217" y="811" type="qcurve"/>
      <point x="217" y="828"/>
      <point x="151" y="850"/>
      <point x="70" y="862" type="qcurve"/>
      <point x="70" y="865" type="line"/>
      <point x="109" y="910" type="line"/>
      <point x="213" y="894"/>
      <point x="295" y="855"/>
    </contour>
    <contour>
      <point x="-149" y="541" type="line"/>
      <point x="-185" y="579" type="line"/>
      <point x="-22" y="733" type="line"/>
      <point x="22" y="733" type="line"/>
      <point x="185" y="579" type="line"/>
      <point x="149" y="541" type="line"/>
      <point x="0" y="661" type="line"/>
    </contour>
  </outline>
</glyph>
<glyph name="circumflextilde" format="2">
  <outline>
    <contour>
      <point x="-70" y="914" type="qcurve"/>
      <point x="-54" y="914"/>
      <point x="-22" y="895"/>
      <point x="15" y="864" type="qcurve"/>
      <point x="46" y="839"/>
      <point x="67" y="825"/>
      <point x="76" y="825" type="qcurve"/>
      <point x="90" y="825"/>
      <point x="116" y="869"/>
      <point x="137" y="921" type="qcurve"/>
      <point x="191" y="903" type="line"/>
      <point x="162" y="823"/>
      <point x="113" y="759"/>
      <point x="79" y="759" type="qcurve"/>
      <point x="64" y="759"/>
      <point x="31" y="778"/>
      <point x="-7" y="809" type="qcurve"/>
      <point x="-37" y="834"/>
      <point x="-58" y="848"/>
      <point x="-67" y="848" type="qcurve"/>
      <point x="-81" y="848"/>
      <point x="-107" y="804"/>
      <point x="-128" y="752" type="qcurve"/>
      <point x="-182" y="770" type="line"/>
      <point x="-153" y="850"/>
      <point x="-104" y="914"/>
    </contour>
    <contour>
      <point x="-149" y="541" type="line"/>
      <point x="-185" y="579" type="line"/>
      <point x="-22" y="733" type="line"/>
      <point x="22" y="733" type="line"/>
      <point x="185" y="579" type="line"/>
      <point x="149" y="541" type="line"/>
      <point x="0" y="661" type="line"/>
    </contour>
  </outline>
</glyph>
<glyph name="dieresisacute.cap" format="2">
  <outline>
    <contour>
      <point x="194" y="1010" type="line"/>
      <point x="-45" y="897" type="line"/>
      <point x="-69" y="946" type="line"/>
      <point x="161" y="1073" type="line"/>
    </contour>
    <contour>
      <point x="-72" y="806" type="qcurve"/>
      <point x="-72" y="779"/>
      <point x="-103" y="751"/>
      <point x="-132" y="751" type="qcurve"/>
      <point x="-160" y="751"/>
      <point x="-191" y="780"/>
      <point x="-191" y="806" type="qcurve"/>
      <point x="-191" y="831"/>
      <point x="-158" y="862"/>
      <point x="-131" y="862" type="qcurve"/>
      <point x="-102" y="862"/>
      <point x="-72" y="833"/>
    </contour>
    <contour>
      <point x="190" y="806" type="qcurve"/>
      <point x="190" y="780"/>
      <point x="159" y="751"/>
      <point x="130" y="751" type="qcurve"/>
      <point x="102" y="751"/>
      <point x="71" y="780"/>
      <point x="71" y="806" type="qcurve"/>
      <point x="71" y="831"/>
      <point x="104" y="862"/>
      <point x="131" y="862" type="qcurve"/>
      <point x="160" y="862"/>
      <point x="190" y="833"/>
    </contour>
  </outline>
</glyph>
<glyph name="dieresisgrave" format="2">
  <outline>
    <contour>
      <point x="-140" y="883" type="line"/>
      <point x="86" y="750" type="line"/>
      <point x="59" y="702" type="line"/>
      <point x="-176" y="822" type="line"/>
    </contour>
    <contour>
      <point x="-60" y="612" type="qcurve"/>
      <point x="-60" y="588"/>
      <point x="-90" y="561"/>
      <point x="-118" y="561" type="qcurve"/>
      <point x="-144" y="561"/>
      <point x="-173" y="587"/>
      <point x="-173" y="612" type="qcurve"/>
      <point x="-173" y="635"/>
      <point x="-142" y="664"/>
      <point x="-117" y="664" type="qcurve"/>
      <point x="-90" y="664"/>
      <point x="-60" y="637"/>
    </contour>
    <contour>
      <point x="174" y="612" type="qcurve"/>
      <point x="174" y="588"/>
      <point x="144" y="561"/>
      <point x="116" y="561" type="qcurve"/>
      <point x="89" y="561"/>
      <point x="60" y="588"/>
      <point x="60" y="612" type="qcurve"/>
      <point x="60" y="635"/>
      <point x="91" y="664"/>
      <point x="117" y="664" type="qcurve"/>
      <point x="144" y="664"/>
      <point x="174" y="637"/>
    </contour>
  </outline>
</glyph>
<glyph name="hungarumlautcmb.cap" format="2">
  <outline>
    <contour>
      <point x="-121" y="731" type="line"/>
      <point x="-162" y="769" type="line"/>
      <point x="-46" y="918" type="line"/>
      <point x="15" y="870" type="line"/>
    </contour>
    <contour>
      <point x="121" y="731" type="line"/>
      <point x="80" y="769" type="line"/>
      <point x="196" y="918" type="line"/>
      <point x="257" y="870" type="line"/>
    </contour>
  </outline>
</glyph>
<glyph name="middotcat" format="2">
  <advance width="614"/>
  <outline>
    <contour>
      <point x="366" y="359" type="qcurve"/>
      <point x="366" y="321"/>
      <point x="326" y="278"/>
      <point x="291" y="278" type="qcurve"/>
      <point x="254" y="278"/>
      <point x="216" y="319"/>
      <point x="216" y="358" type="qcurve"/>
      <point x="216" y="396"/>
      <point x="256" y="440"/>
      <point x="291" y="440" type="qcurve"/>
      <point x="328" y="440"/>
      <point x="366" y="399"/>
    </contour>
  </outline>
</glyph>
<glyph name="nine.den" format="2">
  <advance width="614"/>
  <outline>
    <contour>
      <point x="455" y="253" type="qcurve"/>
      <point x="455" y="201"/>
      <point x="407" y="111"/>
      <point x="346" y="52" type="qcurve"/>
      <point x="294" y="0" type="line"/>
      <point x="210" y="0" type="line"/>
      <point x="209" y="1" type="line"/>
      <point x="290" y="75" type="line"/>
      <point x="308" y="91"/>
      <point x="338" y="124"/>
      <point x="351" y="141" type="qcurve"/>
      <point x="338" y="136"/>
      <point x="310" y="132"/>
      <point x="294" y="132" type="qcurve"/>
      <point x="231" y="132"/>
      <point x="158" y="200"/>
      <point x="158" y="259" type="qcurve"/>
      <point x="158" y="319"/>
      <point x="244" y="395"/>
      <point x="311" y="395" type="qcurve"/>
      <point x="375" y="395"/>
      <point x="455" y="317"/>
    </contour>
    <contour>
      <point x="379" y="190" type="qcurve"/>
      <point x="385" y="205"/>
      <point x="391" y="235"/>
      <point x="391" y="250" type="qcurve"/>
      <point x="391" y="292"/>
      <point x="345" y="342"/>
      <point x="308" y="342" type="qcurve"/>
      <point x="270" y="342"/>
      <point x="224" y="296"/>
      <point x="224" y="258" type="qcurve"/>
      <point x="224" y="221"/>
      <point x="269" y="179"/>
      <point x="310" y="179" type="qcurve"/>
      <point x="329" y="179"/>
      <point x="362" y="184"/>
    </contour>
  </outline>
</glyph>
<glyph name="ringcmb.cap" format="2">
  <outline>
    <contour>
      <point x="154" y="852" type="qcurve"/>
      <point x="154" y="797"/>
      <point x="70" y="731"/>
      <point x="-1" y="731" type="qcurve"/>
      <point x="-71" y="731"/>
      <point x="-154" y="795"/>
      <point x="-154" y="850" type="qcurve"/>
      <point x="-154" y="905"/>
      <point x="-70" y="971"/>
      <point x="1" y="971" type="qcurve"/>
      <point x="71" y="971"/>
      <point x="154" y="907"/>
    </contour>
    <contour>
      <point x="-92" y="849" type="qcurve"/>
      <point x="-92" y="817"/>
      <point x="-45" y="785"/>
      <point x="0" y="785" type="qcurve"/>
      <point x="46" y="785"/>
      <point x="91" y="818"/>
      <point x="91" y="853" type="qcurve"/>
      <point x="91" y="884"/>
      <point x="45" y="916"/>
      <point x="0" y="916" type="qcurve"/>
      <point x="-46" y="916"/>
      <point x="-92" y="883"/>
    </contour>
  </outline>
</glyph>
<glyph name="seven.den" format="2">
  <advance width="614"/>
  <outline>
    <contour>
      <point x="444" y="325" type="line"/>
      <point x="278" y="0" type="line"/>
      <point x="204" y="0" type="line"/>
      <point x="204" y="2" type="line"/>
      <point x="380" y="322" type="line"/>
      <point x="380" y="325" type="line"/>
      <point x="150" y="325" type="line"/>
      <point x="150" y="380" type="line"/>
      <point x="444" y="380" type="line"/>
    </contour>
  </outline>
</glyph>
<glyph name="six.den" format="2">
  <advance width="614"/>
  <outline>
    <contour>
      <point x="321" y="245" type="qcurve"/>
      <point x="384" y="245"/>
      <point x="456" y="178"/>
      <point x="456" y="120" type="qcurve"/>
      <point x="456" y="61"/>
      <point x="372" y="-15"/>
      <point x="306" y="-15" type="qcurve"/>
      <point x="241" y="-15"/>
      <point x="160" y="62"/>
      <point x="160" y="126" type="qcurve"/>
      <point x="160" y="177"/>
      <point x="204" y="261"/>
      <point x="268" y="326" type="qcurve"/>
      <point x="321" y="380" type="line"/>
      <point x="405" y="380" type="line"/>
      <point x="405" y="379" type="line"/>
      <point x="325" y="303" type="line"/>
      <point x="303" y="282"/>
      <point x="274" y="250"/>
      <point x="264" y="236" type="qcurve"/>
      <point x="277" y="241"/>
      <point x="305" y="245"/>
    </contour>
    <contour>
      <point x="236" y="188" type="qcurve"/>
      <point x="230" y="173"/>
      <point x="224" y="143"/>
      <point x="224" y="128" type="qcurve"/>
      <point x="224" y="87"/>
      <point x="270" y="38"/>
      <point x="307" y="38" type="qcurve"/>
      <point x="345" y="38"/>
      <point x="391" y="83"/>
      <point x="391" y="121" type="qcurve"/>
      <point x="391" y="158"/>
      <point x="346" y="199"/>
      <point x="305" y="199" type="qcurve"/>
      <point x="286" y="199"/>
      <point x="252" y="194"/>
    </contour>
  </outline>
</glyph>
<glyph name="three.den" format="2">
  <advance width="614"/>
  <outline>
    <contour>
      <point x="351" y="327" type="line"/>
      <point x="164" y="327" type="line"/>
      <point x="164" y="380" type="line"/>
      <point x="436" y="380" type="line"/>
      <point x="436" y="339" type="line"/>
      <point x="317" y="228" type="line"/>
      <point x="317" y="227" type="line"/>
      <point x="386" y="227"/>
      <point x="456" y="175"/>
      <point x="456" y="124" type="qcurve"/>
      <point x="456" y="66"/>
      <point x="353" y="3"/>
      <point x="248" y="-4" type="qcurve"/>
      <point x="176" y="-9" type="line"/>
      <point x="170" y="47" type="line"/>
      <point x="243" y="53" type="line"/>
      <point x="320" y="59"/>
      <point x="392" y="92"/>
      <point x="392" y="124" type="qcurve"/>
      <point x="392" y="152"/>
      <point x="344" y="179"/>
      <point x="294" y="179" type="qcurve"/>
      <point x="282" y="179"/>
      <point x="256" y="176"/>
      <point x="238" y="173" type="qcurve"/>
      <point x="227" y="204" type="line"/>
      <point x="351" y="325" type="line"/>
    </contour>
  </outline>
</glyph>
<glyph name="two.den" format="2">
  <advance width="614"/>
  <outline>
    <contour>
      <point x="457" y="0" type="line"/>
      <point x="166" y="0" type="line"/>
      <point x="166" y="46" type="line"/>
      <point x="296" y="163" type="line"/>
      <point x="345" y="207"/>
      <point x="382" y="256"/>
      <point x="382" y="282" type="qcurve"/>
      <point x="382" y="308"/>
      <point x="350" y="336"/>
      <point x="320" y="336" type="qcurve"/>
      <point x="289" y="336"/>
      <point x="233" y="306"/>
      <point x="191" y="269" type="qcurve"/>
      <point x="159" y="314" type="line"/>
      <point x="206" y="357"/>
      <point x="280" y="392"/>
      <point x="325" y="392" type="qcurve"/>
      <point x="379" y="392"/>
      <point x="447" y="334"/>
      <point x="447" y="287" type="qcurve"/>
      <point x="447" y="249"/>
      <point x="403" y="186"/>
      <point x="346" y="136" type="qcurve"/>
      <point x="252" y="56" type="line"/>
      <point x="252" y="54" type="line"/>
      <point x="457" y="54" type="line"/>
    </contour>
  </outline>
</glyph>
